<?xml version="1.0" encoding="UTF-8" standalone="no"?>
    <svg xmlns="http://www.w3.org/2000/svg" version="1.1" width="240.0px" height="805.0px" viewBox="0 0 240.0 805.0" style="letter-spacing:0em;font-size:10px;font-family:&apos;DejaVu Sans Mono&apos;;stroke:none">
    <text y="8.5" x="0.0" style="fill:#cdcdcd">███</text>
<text y="8.5" x="18.0" style="fill:#eab91c">██████████████████████</text>
<text y="8.5" x="150.0" style="fill:#cdcdcd">███</text>
<text y="8.5" x="168.0" style="fill:#cdcdcd">████████████</text>
<text y="20.0" x="0.0" style="fill:#eab91c">███</text>
<text y="20.0" x="18.0" style="fill:#cdcdcd">█</text>
<text y="20.0" x="24.0" style="fill:#0d49e4">█</text>
<text y="20.0" x="30.0" style="fill:#cdcdcd">█</text>
<text y="20.0" x="36.0" style="fill:#eab91c">███████</text>
<text y="31.5" x="0.0" style="fill:#eab91c">███</text>
<text y="31.5" x="18.0" style="fill:#cdcdcd">█</text>
<text y="31.5" x="24.0" style="fill:#268dca">█</text>
<text y="31.5" x="30.0" style="fill:#cdcdcd">█</text>
<text y="31.5" x="36.0" style="fill:#eab91c">███████████████</text>
<text y="43.0" x="0.0" style="fill:#eab91c">███</text>
<text y="43.0" x="18.0" style="fill:#cdcdcd">█</text>
<text y="43.0" x="24.0" style="fill:#0d49e4">█</text>
<text y="43.0" x="30.0" style="fill:#cdcdcd">█</text>
<text y="43.0" x="36.0" style="fill:#eab91c">████████████</text>
<text y="54.5" x="0.0" style="fill:#eab91c">███</text>
<text y="54.5" x="18.0" style="fill:#cdcdcd">█</text>
<text y="54.5" x="24.0" style="fill:#eab91c">█</text>
<text y="54.5" x="30.0" style="fill:#cdcdcd">█</text>
<text y="54.5" x="36.0" style="fill:#eab91c">██████</text>
<text y="66.0" x="0.0" style="fill:#eab91c">███</text>
<text y="66.0" x="18.0" style="fill:#cdcdcd">█</text>
<text y="66.0" x="24.0" style="fill:#34d231">█</text>
<text y="66.0" x="30.0" style="fill:#cdcdcd">█</text>
<text y="66.0" x="36.0" style="fill:#eab91c">███████</text>
<text y="77.5" x="0.0" style="fill:#eab91c">███</text>
<text y="77.5" x="18.0" style="fill:#cdcdcd">█</text>
<text y="77.5" x="24.0" style="fill:#cdcdcd">█</text>
<text y="77.5" x="30.0" style="fill:#cdcdcd">█</text>
<text y="77.5" x="36.0" style="fill:#eab91c">██████</text>
<text y="89.0" x="0.0" style="fill:#eab91c">███</text>
<text y="89.0" x="18.0" style="fill:#cdcdcd">█</text>
<text y="89.0" x="24.0" style="fill:#cdcdcd">█</text>
<text y="89.0" x="30.0" style="fill:#cdcdcd">█</text>
<text y="89.0" x="36.0" style="fill:#eab91c">███████</text>
<text y="100.5" x="0.0" style="fill:#eab91c">███</text>
<text y="100.5" x="18.0" style="fill:#cdcdcd">█</text>
<text y="100.5" x="24.0" style="fill:#34d231">█</text>
<text y="100.5" x="30.0" style="fill:#cdcdcd">█</text>
<text y="100.5" x="36.0" style="fill:#eab91c">██████████</text>
<text y="112.0" x="0.0" style="fill:#eab91c">███</text>
<text y="112.0" x="18.0" style="fill:#cdcdcd">█</text>
<text y="112.0" x="24.0" style="fill:#1a1818">█</text>
<text y="112.0" x="30.0" style="fill:#cdcdcd">█</text>
<text y="112.0" x="36.0" style="fill:#eab91c">████████</text>
<text y="123.5" x="0.0" style="fill:#eab91c">███</text>
<text y="123.5" x="18.0" style="fill:#cdcdcd">█</text>
<text y="123.5" x="24.0" style="fill:#34d231">█</text>
<text y="123.5" x="30.0" style="fill:#cdcdcd">█</text>
<text y="123.5" x="36.0" style="fill:#eab91c">██████████████████</text>
<text y="135.0" x="0.0" style="fill:#eab91c">███</text>
<text y="135.0" x="18.0" style="fill:#cdcdcd">█</text>
<text y="135.0" x="24.0" style="fill:#cdcdcd">█</text>
<text y="135.0" x="30.0" style="fill:#cdcdcd">█</text>
<text y="135.0" x="36.0" style="fill:#eab91c">████████████████████</text>
<text y="146.5" x="0.0" style="fill:#eab91c">███</text>
<text y="146.5" x="18.0" style="fill:#cdcdcd">█</text>
<text y="146.5" x="24.0" style="fill:#eab91c">█</text>
<text y="146.5" x="30.0" style="fill:#cdcdcd">█</text>
<text y="146.5" x="36.0" style="fill:#eab91c">█████████████████</text>
<text y="158.0" x="0.0" style="fill:#eab91c">███</text>
<text y="158.0" x="18.0" style="fill:#cdcdcd">█</text>
<text y="158.0" x="24.0" style="fill:#eab91c">█</text>
<text y="158.0" x="30.0" style="fill:#cdcdcd">█</text>
<text y="158.0" x="36.0" style="fill:#eab91c">█████████████████████</text>
<text y="169.5" x="0.0" style="fill:#eab91c">███</text>
<text y="169.5" x="18.0" style="fill:#cdcdcd">█</text>
<text y="169.5" x="24.0" style="fill:#cdcdcd">█</text>
<text y="169.5" x="30.0" style="fill:#cdcdcd">█</text>
<text y="169.5" x="36.0" style="fill:#eab91c">████████████████████████</text>
<text y="181.0" x="0.0" style="fill:#eab91c">███</text>
<text y="181.0" x="18.0" style="fill:#cdcdcd">█</text>
<text y="181.0" x="24.0" style="fill:#34d231">█</text>
<text y="181.0" x="30.0" style="fill:#cdcdcd">█</text>
<text y="181.0" x="36.0" style="fill:#eab91c">██████████████████████</text>
<text y="192.5" x="0.0" style="fill:#eab91c">███</text>
<text y="192.5" x="18.0" style="fill:#cdcdcd">███</text>
<text y="192.5" x="36.0" style="fill:#eab91c">██████████</text>
<text y="204.0" x="0.0" style="fill:#eab91c">███</text>
<text y="204.0" x="18.0" style="fill:#cdcdcd">███</text>
<text y="204.0" x="36.0" style="fill:#eab91c">█████████████████████</text>
<text y="215.5" x="0.0" style="fill:#eab91c">███</text>
<text y="215.5" x="18.0" style="fill:#cdcdcd">█</text>
<text y="215.5" x="24.0" style="fill:#cdcdcd">█</text>
<text y="215.5" x="30.0" style="fill:#cdcdcd">█</text>
<text y="215.5" x="36.0" style="fill:#eab91c">████████████</text>
<text y="227.0" x="0.0" style="fill:#eab91c">███</text>
<text y="227.0" x="18.0" style="fill:#cdcdcd">█</text>
<text y="227.0" x="24.0" style="fill:#cdcdcd">█</text>
<text y="227.0" x="30.0" style="fill:#cdcdcd">█</text>
<text y="227.0" x="36.0" style="fill:#eab91c">██████</text>
<text y="238.5" x="0.0" style="fill:#eab91c">███</text>
<text y="238.5" x="18.0" style="fill:#cdcdcd">█</text>
<text y="238.5" x="24.0" style="fill:#34d231">█</text>
<text y="238.5" x="30.0" style="fill:#cdcdcd">█</text>
<text y="238.5" x="36.0" style="fill:#eab91c">█████████████</text>
<text y="250.0" x="0.0" style="fill:#eab91c">███</text>
<text y="250.0" x="18.0" style="fill:#cdcdcd">█</text>
<text y="250.0" x="24.0" style="fill:#cdcdcd">█</text>
<text y="250.0" x="30.0" style="fill:#cdcdcd">█</text>
<text y="250.0" x="36.0" style="fill:#eab91c">██████████</text>
<text y="261.5" x="0.0" style="fill:#eab91c">███</text>
<text y="261.5" x="18.0" style="fill:#cdcdcd">█</text>
<text y="261.5" x="24.0" style="fill:#cdcdcd">█</text>
<text y="261.5" x="30.0" style="fill:#cdcdcd">█</text>
<text y="261.5" x="36.0" style="fill:#eab91c">████████</text>
<text y="273.0" x="0.0" style="fill:#eab91c">███</text>
<text y="273.0" x="18.0" style="fill:#cdcdcd">█</text>
<text y="273.0" x="24.0" style="fill:#cdcdcd">█</text>
<text y="273.0" x="30.0" style="fill:#cdcdcd">█</text>
<text y="273.0" x="36.0" style="fill:#eab91c">█████████████████</text>
<text y="284.5" x="0.0" style="fill:#eab91c">███</text>
<text y="284.5" x="18.0" style="fill:#cdcdcd">█</text>
<text y="284.5" x="24.0" style="fill:#cdcdcd">█</text>
<text y="284.5" x="30.0" style="fill:#cdcdcd">█</text>
<text y="284.5" x="36.0" style="fill:#eab91c">██████████</text>
<text y="296.0" x="0.0" style="fill:#eab91c">███</text>
<text y="296.0" x="18.0" style="fill:#cdcdcd">█</text>
<text y="296.0" x="24.0" style="fill:#cdcdcd">█</text>
<text y="296.0" x="30.0" style="fill:#cdcdcd">█</text>
<text y="296.0" x="36.0" style="fill:#eab91c">██████████</text>
<text y="307.5" x="0.0" style="fill:#eab91c">███</text>
<text y="307.5" x="18.0" style="fill:#cdcdcd">█</text>
<text y="307.5" x="24.0" style="fill:#cdcdcd">█</text>
<text y="307.5" x="30.0" style="fill:#cdcdcd">█</text>
<text y="307.5" x="36.0" style="fill:#eab91c">██████████</text>
<text y="319.0" x="0.0" style="fill:#eab91c">███</text>
<text y="319.0" x="18.0" style="fill:#cdcdcd">█</text>
<text y="319.0" x="24.0" style="fill:#cdcdcd">█</text>
<text y="319.0" x="30.0" style="fill:#cdcdcd">█</text>
<text y="319.0" x="36.0" style="fill:#eab91c">██████████</text>
<text y="330.5" x="0.0" style="fill:#eab91c">███</text>
<text y="330.5" x="18.0" style="fill:#cdcdcd">█</text>
<text y="330.5" x="24.0" style="fill:#cdcdcd">█</text>
<text y="330.5" x="30.0" style="fill:#cdcdcd">█</text>
<text y="330.5" x="36.0" style="fill:#eab91c">██████████</text>
<text y="342.0" x="0.0" style="fill:#eab91c">███</text>
<text y="342.0" x="18.0" style="fill:#cdcdcd">█</text>
<text y="342.0" x="24.0" style="fill:#cdcdcd">█</text>
<text y="342.0" x="30.0" style="fill:#cdcdcd">█</text>
<text y="342.0" x="36.0" style="fill:#eab91c">██████████</text>
<text y="353.5" x="0.0" style="fill:#eab91c">███</text>
<text y="353.5" x="18.0" style="fill:#cdcdcd">█</text>
<text y="353.5" x="24.0" style="fill:#cdcdcd">█</text>
<text y="353.5" x="30.0" style="fill:#cdcdcd">█</text>
<text y="353.5" x="36.0" style="fill:#eab91c">██████████</text>
<text y="365.0" x="0.0" style="fill:#eab91c">███</text>
<text y="365.0" x="18.0" style="fill:#cdcdcd">█</text>
<text y="365.0" x="24.0" style="fill:#cdcdcd">█</text>
<text y="365.0" x="30.0" style="fill:#cdcdcd">█</text>
<text y="365.0" x="36.0" style="fill:#eab91c">██████████</text>
<text y="376.5" x="0.0" style="fill:#eab91c">███</text>
<text y="376.5" x="18.0" style="fill:#cdcdcd">█</text>
<text y="376.5" x="24.0" style="fill:#cdcdcd">█</text>
<text y="376.5" x="30.0" style="fill:#cdcdcd">█</text>
<text y="376.5" x="36.0" style="fill:#eab91c">██████████</text>
<text y="388.0" x="0.0" style="fill:#eab91c">███</text>
<text y="388.0" x="18.0" style="fill:#cdcdcd">█</text>
<text y="388.0" x="24.0" style="fill:#cdcdcd">█</text>
<text y="388.0" x="30.0" style="fill:#cdcdcd">█</text>
<text y="388.0" x="36.0" style="fill:#eab91c">██████████</text>
<text y="399.5" x="0.0" style="fill:#eab91c">███</text>
<text y="399.5" x="18.0" style="fill:#cdcdcd">█</text>
<text y="399.5" x="24.0" style="fill:#cdcdcd">█</text>
<text y="399.5" x="30.0" style="fill:#cdcdcd">█</text>
<text y="399.5" x="36.0" style="fill:#eab91c">█████████████</text>
<text y="411.0" x="0.0" style="fill:#eab91c">███</text>
<text y="411.0" x="18.0" style="fill:#cdcdcd">█</text>
<text y="411.0" x="24.0" style="fill:#cdcdcd">█</text>
<text y="411.0" x="30.0" style="fill:#cdcdcd">█</text>
<text y="411.0" x="36.0" style="fill:#eab91c">██████</text>
<text y="422.5" x="0.0" style="fill:#eab91c">███</text>
<text y="422.5" x="18.0" style="fill:#cdcdcd">█</text>
<text y="422.5" x="24.0" style="fill:#cdcdcd">█</text>
<text y="422.5" x="30.0" style="fill:#cdcdcd">█</text>
<text y="422.5" x="36.0" style="fill:#eab91c">███████████████</text>
<text y="434.0" x="0.0" style="fill:#eab91c">███</text>
<text y="434.0" x="18.0" style="fill:#cdcdcd">█</text>
<text y="434.0" x="24.0" style="fill:#cdcdcd">█</text>
<text y="434.0" x="30.0" style="fill:#cdcdcd">█</text>
<text y="434.0" x="36.0" style="fill:#eab91c">████████</text>
<text y="445.5" x="0.0" style="fill:#eab91c">███</text>
<text y="445.5" x="18.0" style="fill:#cdcdcd">█</text>
<text y="445.5" x="24.0" style="fill:#cdcdcd">█</text>
<text y="445.5" x="30.0" style="fill:#cdcdcd">█</text>
<text y="445.5" x="36.0" style="fill:#eab91c">████████</text>
<text y="457.0" x="0.0" style="fill:#eab91c">███</text>
<text y="457.0" x="18.0" style="fill:#cdcdcd">█</text>
<text y="457.0" x="24.0" style="fill:#cdcdcd">█</text>
<text y="457.0" x="30.0" style="fill:#cdcdcd">█</text>
<text y="457.0" x="36.0" style="fill:#eab91c">████████</text>
<text y="468.5" x="0.0" style="fill:#eab91c">███</text>
<text y="468.5" x="18.0" style="fill:#cdcdcd">█</text>
<text y="468.5" x="24.0" style="fill:#cdcdcd">█</text>
<text y="468.5" x="30.0" style="fill:#cdcdcd">█</text>
<text y="468.5" x="36.0" style="fill:#eab91c">████████</text>
<text y="480.0" x="0.0" style="fill:#eab91c">███</text>
<text y="480.0" x="18.0" style="fill:#cdcdcd">█</text>
<text y="480.0" x="24.0" style="fill:#cdcdcd">█</text>
<text y="480.0" x="30.0" style="fill:#cdcdcd">█</text>
<text y="480.0" x="36.0" style="fill:#eab91c">████████</text>
<text y="491.5" x="0.0" style="fill:#eab91c">███</text>
<text y="491.5" x="18.0" style="fill:#cdcdcd">█</text>
<text y="491.5" x="24.0" style="fill:#cdcdcd">█</text>
<text y="491.5" x="30.0" style="fill:#cdcdcd">█</text>
<text y="491.5" x="36.0" style="fill:#eab91c">████████</text>
<text y="503.0" x="0.0" style="fill:#eab91c">███</text>
<text y="503.0" x="18.0" style="fill:#cdcdcd">█</text>
<text y="503.0" x="24.0" style="fill:#cdcdcd">█</text>
<text y="503.0" x="30.0" style="fill:#cdcdcd">█</text>
<text y="503.0" x="36.0" style="fill:#eab91c">████████</text>
<text y="514.5" x="0.0" style="fill:#eab91c">███</text>
<text y="514.5" x="18.0" style="fill:#cdcdcd">█</text>
<text y="514.5" x="24.0" style="fill:#cdcdcd">█</text>
<text y="514.5" x="30.0" style="fill:#cdcdcd">█</text>
<text y="514.5" x="36.0" style="fill:#eab91c">████████</text>
<text y="526.0" x="0.0" style="fill:#eab91c">███</text>
<text y="526.0" x="18.0" style="fill:#cdcdcd">█</text>
<text y="526.0" x="24.0" style="fill:#cdcdcd">█</text>
<text y="526.0" x="30.0" style="fill:#cdcdcd">█</text>
<text y="526.0" x="36.0" style="fill:#eab91c">████████</text>
<text y="537.5" x="0.0" style="fill:#eab91c">███</text>
<text y="537.5" x="18.0" style="fill:#cdcdcd">█</text>
<text y="537.5" x="24.0" style="fill:#cdcdcd">█</text>
<text y="537.5" x="30.0" style="fill:#cdcdcd">█</text>
<text y="537.5" x="36.0" style="fill:#eab91c">████████</text>
<text y="549.0" x="0.0" style="fill:#eab91c">███</text>
<text y="549.0" x="18.0" style="fill:#cdcdcd">█</text>
<text y="549.0" x="24.0" style="fill:#cdcdcd">█</text>
<text y="549.0" x="30.0" style="fill:#cdcdcd">█</text>
<text y="549.0" x="36.0" style="fill:#eab91c">███████████</text>
<text y="560.5" x="0.0" style="fill:#eab91c">███</text>
<text y="560.5" x="18.0" style="fill:#cdcdcd">█</text>
<text y="560.5" x="24.0" style="fill:#cdcdcd">█</text>
<text y="560.5" x="30.0" style="fill:#cdcdcd">█</text>
<text y="560.5" x="36.0" style="fill:#eab91c">███████</text>
<text y="572.0" x="0.0" style="fill:#eab91c">███</text>
<text y="572.0" x="18.0" style="fill:#cdcdcd">█</text>
<text y="572.0" x="24.0" style="fill:#cdcdcd">█</text>
<text y="572.0" x="30.0" style="fill:#cdcdcd">█</text>
<text y="572.0" x="36.0" style="fill:#eab91c">████████████████</text>
<text y="583.5" x="0.0" style="fill:#eab91c">███</text>
<text y="583.5" x="18.0" style="fill:#cdcdcd">█</text>
<text y="583.5" x="24.0" style="fill:#cdcdcd">█</text>
<text y="583.5" x="30.0" style="fill:#cdcdcd">█</text>
<text y="583.5" x="36.0" style="fill:#eab91c">█████████</text>
<text y="595.0" x="0.0" style="fill:#eab91c">███</text>
<text y="595.0" x="18.0" style="fill:#cdcdcd">█</text>
<text y="595.0" x="24.0" style="fill:#cdcdcd">█</text>
<text y="595.0" x="30.0" style="fill:#cdcdcd">█</text>
<text y="595.0" x="36.0" style="fill:#eab91c">█████████</text>
<text y="606.5" x="0.0" style="fill:#eab91c">███</text>
<text y="606.5" x="18.0" style="fill:#cdcdcd">█</text>
<text y="606.5" x="24.0" style="fill:#cdcdcd">█</text>
<text y="606.5" x="30.0" style="fill:#cdcdcd">█</text>
<text y="606.5" x="36.0" style="fill:#eab91c">█████████</text>
<text y="618.0" x="0.0" style="fill:#eab91c">███</text>
<text y="618.0" x="18.0" style="fill:#cdcdcd">█</text>
<text y="618.0" x="24.0" style="fill:#cdcdcd">█</text>
<text y="618.0" x="30.0" style="fill:#cdcdcd">█</text>
<text y="618.0" x="36.0" style="fill:#eab91c">█████████</text>
<text y="629.5" x="0.0" style="fill:#eab91c">███</text>
<text y="629.5" x="18.0" style="fill:#cdcdcd">█</text>
<text y="629.5" x="24.0" style="fill:#cdcdcd">█</text>
<text y="629.5" x="30.0" style="fill:#cdcdcd">█</text>
<text y="629.5" x="36.0" style="fill:#eab91c">█████████</text>
<text y="641.0" x="0.0" style="fill:#eab91c">███</text>
<text y="641.0" x="18.0" style="fill:#cdcdcd">█</text>
<text y="641.0" x="24.0" style="fill:#cdcdcd">█</text>
<text y="641.0" x="30.0" style="fill:#cdcdcd">█</text>
<text y="641.0" x="36.0" style="fill:#eab91c">█████████</text>
<text y="652.5" x="0.0" style="fill:#eab91c">███</text>
<text y="652.5" x="18.0" style="fill:#cdcdcd">█</text>
<text y="652.5" x="24.0" style="fill:#cdcdcd">█</text>
<text y="652.5" x="30.0" style="fill:#cdcdcd">█</text>
<text y="652.5" x="36.0" style="fill:#eab91c">█████████</text>
<text y="664.0" x="0.0" style="fill:#eab91c">███</text>
<text y="664.0" x="18.0" style="fill:#cdcdcd">█</text>
<text y="664.0" x="24.0" style="fill:#cdcdcd">█</text>
<text y="664.0" x="30.0" style="fill:#cdcdcd">█</text>
<text y="664.0" x="36.0" style="fill:#eab91c">█████████</text>
<text y="675.5" x="0.0" style="fill:#eab91c">███</text>
<text y="675.5" x="18.0" style="fill:#cdcdcd">█</text>
<text y="675.5" x="24.0" style="fill:#cdcdcd">█</text>
<text y="675.5" x="30.0" style="fill:#cdcdcd">█</text>
<text y="675.5" x="36.0" style="fill:#eab91c">█████████</text>
<text y="687.0" x="0.0" style="fill:#eab91c">███</text>
<text y="687.0" x="18.0" style="fill:#cdcdcd">█</text>
<text y="687.0" x="24.0" style="fill:#cdcdcd">█</text>
<text y="687.0" x="30.0" style="fill:#cdcdcd">█</text>
<text y="687.0" x="36.0" style="fill:#eab91c">█████████</text>
<text y="698.5" x="0.0" style="fill:#eab91c">███</text>
<text y="698.5" x="18.0" style="fill:#cdcdcd">█</text>
<text y="698.5" x="24.0" style="fill:#cdcdcd">█</text>
<text y="698.5" x="30.0" style="fill:#cdcdcd">█</text>
<text y="698.5" x="36.0" style="fill:#eab91c">████████████</text>
<text y="710.0" x="0.0" style="fill:#eab91c">███</text>
<text y="710.0" x="18.0" style="fill:#cdcdcd">█</text>
<text y="710.0" x="24.0" style="fill:#cdcdcd">█</text>
<text y="710.0" x="30.0" style="fill:#cdcdcd">█</text>
<text y="710.0" x="36.0" style="fill:#eab91c">██████████████████████████████████</text>
<text y="721.5" x="0.0" style="fill:#eab91c">███</text>
<text y="721.5" x="18.0" style="fill:#cdcdcd">█</text>
<text y="721.5" x="24.0" style="fill:#cdcdcd">█</text>
<text y="721.5" x="30.0" style="fill:#cdcdcd">█</text>
<text y="721.5" x="36.0" style="fill:#eab91c">████████████████████████████████</text>
<text y="733.0" x="0.0" style="fill:#eab91c">███</text>
<text y="733.0" x="18.0" style="fill:#cdcdcd">█</text>
<text y="733.0" x="24.0" style="fill:#268dca">█</text>
<text y="733.0" x="30.0" style="fill:#cdcdcd">█</text>
<text y="733.0" x="36.0" style="fill:#eab91c">█████████</text>
<text y="744.5" x="0.0" style="fill:#eab91c">███</text>
<text y="744.5" x="18.0" style="fill:#cdcdcd">█</text>
<text y="744.5" x="24.0" style="fill:#268dca">█</text>
<text y="744.5" x="30.0" style="fill:#cdcdcd">█</text>
<text y="744.5" x="36.0" style="fill:#eab91c">█████████</text>
<text y="756.0" x="0.0" style="fill:#eab91c">███</text>
<text y="756.0" x="18.0" style="fill:#cdcdcd">█</text>
<text y="756.0" x="24.0" style="fill:#cdcdcd">█</text>
<text y="756.0" x="30.0" style="fill:#cdcdcd">█</text>
<text y="756.0" x="36.0" style="fill:#eab91c">████████████</text>
<text y="767.5" x="0.0" style="fill:#eab91c">███</text>
<text y="767.5" x="18.0" style="fill:#cdcdcd">█</text>
<text y="767.5" x="24.0" style="fill:#cdcdcd">█</text>
<text y="767.5" x="30.0" style="fill:#cdcdcd">█</text>
<text y="767.5" x="36.0" style="fill:#eab91c">███████████</text>
<text y="779.0" x="0.0" style="fill:#eab91c">███</text>
<text y="779.0" x="18.0" style="fill:#cdcdcd">█</text>
<text y="779.0" x="24.0" style="fill:#cdcdcd">█</text>
<text y="779.0" x="30.0" style="fill:#cdcdcd">█</text>
<text y="779.0" x="36.0" style="fill:#eab91c">██████</text>
<text y="790.5" x="0.0" style="fill:#eab91c">███</text>
<text y="790.5" x="18.0" style="fill:#cdcdcd">█</text>
<text y="790.5" x="24.0" style="fill:#cdcdcd">█</text>
<text y="790.5" x="30.0" style="fill:#cdcdcd">█</text>
<text y="790.5" x="36.0" style="fill:#eab91c">████████</text>
<text y="802.0" x="0.0" style="fill:#eab91c">███</text>
<text y="802.0" x="18.0" style="fill:#cdcdcd">███</text>
<text y="802.0" x="36.0" style="fill:#eab91c">███████</text>
<text y="8.5" x="0.0" style="fill:#e90707">═══</text>
<text y="8.5" x="18.0" style="fill:#1a1818"> Legend for Mapmakers </text>
<text y="8.5" x="150.0" style="fill:#e90707">═══</text>
<text y="8.5" x="168.0" style="fill:#1a1818">            </text>
<text y="20.0" x="0.0" style="fill:#1a1818"> w </text>
<text y="20.0" x="18.0" style="fill:#1a1818"> </text>
<text y="20.0" x="24.0" style="fill:#ffffff">≈</text>
<text y="20.0" x="30.0" style="fill:#1a1818"> </text>
<text y="20.0" x="36.0" style="fill:#1a1818"> water </text>
<text y="31.5" x="0.0" style="fill:#1a1818"> W </text>
<text y="31.5" x="18.0" style="fill:#1a1818"> </text>
<text y="31.5" x="24.0" style="fill:#ffffff">≈</text>
<text y="31.5" x="30.0" style="fill:#1a1818"> </text>
<text y="31.5" x="36.0" style="fill:#1a1818"> water_shallow </text>
<text y="43.0" x="0.0" style="fill:#1a1818"> D </text>
<text y="43.0" x="18.0" style="fill:#1a1818"> </text>
<text y="43.0" x="24.0" style="fill:#ffffff">≈</text>
<text y="43.0" x="30.0" style="fill:#1a1818"> </text>
<text y="43.0" x="36.0" style="fill:#1a1818"> water_deep </text>
<text y="54.5" x="0.0" style="fill:#1a1818"> , </text>
<text y="54.5" x="18.0" style="fill:#1a1818"> </text>
<text y="54.5" x="24.0" style="fill:#cdcdcd">░</text>
<text y="54.5" x="30.0" style="fill:#1a1818"> </text>
<text y="54.5" x="36.0" style="fill:#1a1818"> sand </text>
<text y="66.0" x="0.0" style="fill:#1a1818"> . </text>
<text y="66.0" x="18.0" style="fill:#1a1818"> </text>
<text y="66.0" x="24.0" style="fill:#1b8b1b">⌄</text>
<text y="66.0" x="30.0" style="fill:#1a1818"> </text>
<text y="66.0" x="36.0" style="fill:#1a1818"> grass </text>
<text y="77.5" x="0.0" style="fill:#1a1818"> i </text>
<text y="77.5" x="18.0" style="fill:#1a1818"> </text>
<text y="77.5" x="24.0" style="fill:#cdcdcd">▓</text>
<text y="77.5" x="30.0" style="fill:#1a1818"> </text>
<text y="77.5" x="36.0" style="fill:#1a1818"> snow </text>
<text y="89.0" x="0.0" style="fill:#1a1818"> s </text>
<text y="89.0" x="18.0" style="fill:#1a1818"> </text>
<text y="89.0" x="24.0" style="fill:#ffffff">█</text>
<text y="89.0" x="30.0" style="fill:#1a1818"> </text>
<text y="89.0" x="36.0" style="fill:#1a1818"> plaza </text>
<text y="100.5" x="0.0" style="fill:#1a1818"> y </text>
<text y="100.5" x="18.0" style="fill:#1a1818"> </text>
<text y="100.5" x="24.0" style="fill:#eab91c">█</text>
<text y="100.5" x="30.0" style="fill:#1a1818"> </text>
<text y="100.5" x="36.0" style="fill:#1a1818"> farmland </text>
<text y="112.0" x="0.0" style="fill:#1a1818"> U </text>
<text y="112.0" x="18.0" style="fill:#1a1818"> </text>
<text y="112.0" x="24.0" style="fill:#232323">▓</text>
<text y="112.0" x="30.0" style="fill:#1a1818"> </text>
<text y="112.0" x="36.0" style="fill:#1a1818"> Brache </text>
<text y="123.5" x="0.0" style="fill:#1a1818"> a </text>
<text y="123.5" x="18.0" style="fill:#1a1818"> </text>
<text y="123.5" x="24.0" style="fill:#1b8b1b">φ</text>
<text y="123.5" x="30.0" style="fill:#1a1818"> </text>
<text y="123.5" x="36.0" style="fill:#1a1818"> forrest on grass </text>
<text y="135.0" x="0.0" style="fill:#1a1818"> ä </text>
<text y="135.0" x="18.0" style="fill:#1a1818"> </text>
<text y="135.0" x="24.0" style="fill:#1b8b1b">φ</text>
<text y="135.0" x="30.0" style="fill:#1a1818"> </text>
<text y="135.0" x="36.0" style="fill:#1a1818"> forrest on asphalt </text>
<text y="146.5" x="0.0" style="fill:#1a1818"> â </text>
<text y="146.5" x="18.0" style="fill:#1a1818"> </text>
<text y="146.5" x="24.0" style="fill:#1b8b1b">φ</text>
<text y="146.5" x="30.0" style="fill:#1a1818"> </text>
<text y="146.5" x="36.0" style="fill:#1a1818"> forrest on sand </text>
<text y="158.0" x="0.0" style="fill:#1a1818"> u </text>
<text y="158.0" x="18.0" style="fill:#1a1818"> </text>
<text y="158.0" x="24.0" style="fill:#1b8b1b">Γ</text>
<text y="158.0" x="30.0" style="fill:#1a1818"> </text>
<text y="158.0" x="36.0" style="fill:#1a1818"> palmforrest on sand </text>
<text y="169.5" x="0.0" style="fill:#1a1818"> ü </text>
<text y="169.5" x="18.0" style="fill:#1a1818"> </text>
<text y="169.5" x="24.0" style="fill:#1b8b1b">Γ</text>
<text y="169.5" x="30.0" style="fill:#1a1818"> </text>
<text y="169.5" x="36.0" style="fill:#1a1818"> palmforrest on asphalt </text>
<text y="181.0" x="0.0" style="fill:#1a1818"> ú </text>
<text y="181.0" x="18.0" style="fill:#1a1818"> </text>
<text y="181.0" x="24.0" style="fill:#1b8b1b">Γ</text>
<text y="181.0" x="30.0" style="fill:#1a1818"> </text>
<text y="181.0" x="36.0" style="fill:#1a1818"> palmforrest on grass </text>
<text y="192.5" x="0.0" style="fill:#1a1818"> b </text>
<text y="192.5" x="18.0" style="fill:#1a1818"> ▪ </text>
<text y="192.5" x="36.0" style="fill:#1a1818"> building </text>
<text y="204.0" x="0.0" style="fill:#1a1818"> B </text>
<text y="204.0" x="18.0" style="fill:#1a1818"> █ </text>
<text y="204.0" x="36.0" style="fill:#1a1818"> multiblock_building </text>
<text y="215.5" x="0.0" style="fill:#1a1818"> L </text>
<text y="215.5" x="18.0" style="fill:#1a1818"> </text>
<text y="215.5" x="24.0" style="fill:#e90707">◘</text>
<text y="215.5" x="30.0" style="fill:#1a1818"> </text>
<text y="215.5" x="36.0" style="fill:#1a1818"> lighthouse </text>
<text y="227.0" x="0.0" style="fill:#1a1818"> O </text>
<text y="227.0" x="18.0" style="fill:#1a1818"> </text>
<text y="227.0" x="24.0" style="fill:#232323">○</text>
<text y="227.0" x="30.0" style="fill:#1a1818"> </text>
<text y="227.0" x="36.0" style="fill:#1a1818"> Well </text>
<text y="238.5" x="0.0" style="fill:#1a1818"> g </text>
<text y="238.5" x="18.0" style="fill:#1a1818"> </text>
<text y="238.5" x="24.0" style="fill:#232323">⌂</text>
<text y="238.5" x="30.0" style="fill:#1a1818"> </text>
<text y="238.5" x="36.0" style="fill:#1a1818"> gravestones </text>
<text y="250.0" x="0.0" style="fill:#1a1818"> m </text>
<text y="250.0" x="18.0" style="fill:#1a1818"> </text>
<text y="250.0" x="24.0" style="fill:#232323">▲</text>
<text y="250.0" x="30.0" style="fill:#1a1818"> </text>
<text y="250.0" x="36.0" style="fill:#1a1818"> mountain </text>
<text y="261.5" x="0.0" style="fill:#1a1818"> x </text>
<text y="261.5" x="18.0" style="fill:#1a1818"> </text>
<text y="261.5" x="24.0" style="fill:#232323">┃</text>
<text y="261.5" x="30.0" style="fill:#1a1818"> </text>
<text y="261.5" x="36.0" style="fill:#1a1818"> street </text>
<text y="273.0" x="0.0" style="fill:#1a1818"> 0 </text>
<text y="273.0" x="18.0" style="fill:#1a1818"> </text>
<text y="273.0" x="24.0" style="fill:#232323">╋</text>
<text y="273.0" x="30.0" style="fill:#1a1818"> </text>
<text y="273.0" x="36.0" style="fill:#1a1818"> street_crossing </text>
<text y="284.5" x="0.0" style="fill:#1a1818"> - </text>
<text y="284.5" x="18.0" style="fill:#1a1818"> </text>
<text y="284.5" x="24.0" style="fill:#232323">━</text>
<text y="284.5" x="30.0" style="fill:#1a1818"> </text>
<text y="284.5" x="36.0" style="fill:#1a1818"> street_h </text>
<text y="296.0" x="0.0" style="fill:#1a1818"> | </text>
<text y="296.0" x="18.0" style="fill:#1a1818"> </text>
<text y="296.0" x="24.0" style="fill:#232323">┃</text>
<text y="296.0" x="30.0" style="fill:#1a1818"> </text>
<text y="296.0" x="36.0" style="fill:#1a1818"> street_v </text>
<text y="307.5" x="0.0" style="fill:#1a1818"> 1 </text>
<text y="307.5" x="18.0" style="fill:#1a1818"> </text>
<text y="307.5" x="24.0" style="fill:#232323">┓</text>
<text y="307.5" x="30.0" style="fill:#1a1818"> </text>
<text y="307.5" x="36.0" style="fill:#1a1818"> street_1 </text>
<text y="319.0" x="0.0" style="fill:#1a1818"> 2 </text>
<text y="319.0" x="18.0" style="fill:#1a1818"> </text>
<text y="319.0" x="24.0" style="fill:#232323">┏</text>
<text y="319.0" x="30.0" style="fill:#1a1818"> </text>
<text y="319.0" x="36.0" style="fill:#1a1818"> street_2 </text>
<text y="330.5" x="0.0" style="fill:#1a1818"> 3 </text>
<text y="330.5" x="18.0" style="fill:#1a1818"> </text>
<text y="330.5" x="24.0" style="fill:#232323">┛</text>
<text y="330.5" x="30.0" style="fill:#1a1818"> </text>
<text y="330.5" x="36.0" style="fill:#1a1818"> street_3 </text>
<text y="342.0" x="0.0" style="fill:#1a1818"> 4 </text>
<text y="342.0" x="18.0" style="fill:#1a1818"> </text>
<text y="342.0" x="24.0" style="fill:#232323">┗</text>
<text y="342.0" x="30.0" style="fill:#1a1818"> </text>
<text y="342.0" x="36.0" style="fill:#1a1818"> street_4 </text>
<text y="353.5" x="0.0" style="fill:#1a1818"> 5 </text>
<text y="353.5" x="18.0" style="fill:#1a1818"> </text>
<text y="353.5" x="24.0" style="fill:#232323">┳</text>
<text y="353.5" x="30.0" style="fill:#1a1818"> </text>
<text y="353.5" x="36.0" style="fill:#1a1818"> street_5 </text>
<text y="365.0" x="0.0" style="fill:#1a1818"> 6 </text>
<text y="365.0" x="18.0" style="fill:#1a1818"> </text>
<text y="365.0" x="24.0" style="fill:#232323">┻</text>
<text y="365.0" x="30.0" style="fill:#1a1818"> </text>
<text y="365.0" x="36.0" style="fill:#1a1818"> street_6 </text>
<text y="376.5" x="0.0" style="fill:#1a1818"> 7 </text>
<text y="376.5" x="18.0" style="fill:#1a1818"> </text>
<text y="376.5" x="24.0" style="fill:#232323">┫</text>
<text y="376.5" x="30.0" style="fill:#1a1818"> </text>
<text y="376.5" x="36.0" style="fill:#1a1818"> street_7 </text>
<text y="388.0" x="0.0" style="fill:#1a1818"> 8 </text>
<text y="388.0" x="18.0" style="fill:#1a1818"> </text>
<text y="388.0" x="24.0" style="fill:#232323">┣</text>
<text y="388.0" x="30.0" style="fill:#1a1818"> </text>
<text y="388.0" x="36.0" style="fill:#1a1818"> street_8 </text>
<text y="399.5" x="0.0" style="fill:#1a1818"> 9 </text>
<text y="399.5" x="18.0" style="fill:#1a1818"> </text>
<text y="399.5" x="24.0" style="fill:#232323">▪</text>
<text y="399.5" x="30.0" style="fill:#1a1818"> </text>
<text y="399.5" x="36.0" style="fill:#1a1818"> street_none </text>
<text y="411.0" x="0.0" style="fill:#1a1818"> + </text>
<text y="411.0" x="18.0" style="fill:#1a1818"> </text>
<text y="411.0" x="24.0" style="fill:#301602">│</text>
<text y="411.0" x="30.0" style="fill:#1a1818"> </text>
<text y="411.0" x="36.0" style="fill:#1a1818"> dirt </text>
<text y="422.5" x="0.0" style="fill:#1a1818"> ₀ </text>
<text y="422.5" x="18.0" style="fill:#1a1818"> </text>
<text y="422.5" x="24.0" style="fill:#301602">┼</text>
<text y="422.5" x="30.0" style="fill:#1a1818"> </text>
<text y="422.5" x="36.0" style="fill:#1a1818"> dirt_crossing </text>
<text y="434.0" x="0.0" style="fill:#1a1818"> ~ </text>
<text y="434.0" x="18.0" style="fill:#1a1818"> </text>
<text y="434.0" x="24.0" style="fill:#301602">─</text>
<text y="434.0" x="30.0" style="fill:#1a1818"> </text>
<text y="434.0" x="36.0" style="fill:#1a1818"> dirt_h </text>
<text y="445.5" x="0.0" style="fill:#1a1818"> ! </text>
<text y="445.5" x="18.0" style="fill:#1a1818"> </text>
<text y="445.5" x="24.0" style="fill:#301602">│</text>
<text y="445.5" x="30.0" style="fill:#1a1818"> </text>
<text y="445.5" x="36.0" style="fill:#1a1818"> dirt_v </text>
<text y="457.0" x="0.0" style="fill:#1a1818"> ₁ </text>
<text y="457.0" x="18.0" style="fill:#1a1818"> </text>
<text y="457.0" x="24.0" style="fill:#301602">┐</text>
<text y="457.0" x="30.0" style="fill:#1a1818"> </text>
<text y="457.0" x="36.0" style="fill:#1a1818"> dirt_1 </text>
<text y="468.5" x="0.0" style="fill:#1a1818"> ₂ </text>
<text y="468.5" x="18.0" style="fill:#1a1818"> </text>
<text y="468.5" x="24.0" style="fill:#301602">┌</text>
<text y="468.5" x="30.0" style="fill:#1a1818"> </text>
<text y="468.5" x="36.0" style="fill:#1a1818"> dirt_2 </text>
<text y="480.0" x="0.0" style="fill:#1a1818"> ₃ </text>
<text y="480.0" x="18.0" style="fill:#1a1818"> </text>
<text y="480.0" x="24.0" style="fill:#301602">┘</text>
<text y="480.0" x="30.0" style="fill:#1a1818"> </text>
<text y="480.0" x="36.0" style="fill:#1a1818"> dirt_3 </text>
<text y="491.5" x="0.0" style="fill:#1a1818"> ₄ </text>
<text y="491.5" x="18.0" style="fill:#1a1818"> </text>
<text y="491.5" x="24.0" style="fill:#301602">└</text>
<text y="491.5" x="30.0" style="fill:#1a1818"> </text>
<text y="491.5" x="36.0" style="fill:#1a1818"> dirt_4 </text>
<text y="503.0" x="0.0" style="fill:#1a1818"> ₅ </text>
<text y="503.0" x="18.0" style="fill:#1a1818"> </text>
<text y="503.0" x="24.0" style="fill:#301602">┬</text>
<text y="503.0" x="30.0" style="fill:#1a1818"> </text>
<text y="503.0" x="36.0" style="fill:#1a1818"> dirt_5 </text>
<text y="514.5" x="0.0" style="fill:#1a1818"> ₆ </text>
<text y="514.5" x="18.0" style="fill:#1a1818"> </text>
<text y="514.5" x="24.0" style="fill:#301602">┴</text>
<text y="514.5" x="30.0" style="fill:#1a1818"> </text>
<text y="514.5" x="36.0" style="fill:#1a1818"> dirt_6 </text>
<text y="526.0" x="0.0" style="fill:#1a1818"> ₇ </text>
<text y="526.0" x="18.0" style="fill:#1a1818"> </text>
<text y="526.0" x="24.0" style="fill:#301602">┤</text>
<text y="526.0" x="30.0" style="fill:#1a1818"> </text>
<text y="526.0" x="36.0" style="fill:#1a1818"> dirt_7 </text>
<text y="537.5" x="0.0" style="fill:#1a1818"> ₈ </text>
<text y="537.5" x="18.0" style="fill:#1a1818"> </text>
<text y="537.5" x="24.0" style="fill:#301602">├</text>
<text y="537.5" x="30.0" style="fill:#1a1818"> </text>
<text y="537.5" x="36.0" style="fill:#1a1818"> dirt_8 </text>
<text y="549.0" x="0.0" style="fill:#1a1818"> ₉ </text>
<text y="549.0" x="18.0" style="fill:#1a1818"> </text>
<text y="549.0" x="24.0" style="fill:#301602">▪</text>
<text y="549.0" x="30.0" style="fill:#1a1818"> </text>
<text y="549.0" x="36.0" style="fill:#1a1818"> dirt_none </text>
<text y="560.5" x="0.0" style="fill:#1a1818"> r </text>
<text y="560.5" x="18.0" style="fill:#1a1818"> </text>
<text y="560.5" x="24.0" style="fill:#e90707">║</text>
<text y="560.5" x="30.0" style="fill:#1a1818"> </text>
<text y="560.5" x="36.0" style="fill:#1a1818"> rails </text>
<text y="572.0" x="0.0" style="fill:#1a1818"> ⁰ </text>
<text y="572.0" x="18.0" style="fill:#1a1818"> </text>
<text y="572.0" x="24.0" style="fill:#e90707">╬</text>
<text y="572.0" x="30.0" style="fill:#1a1818"> </text>
<text y="572.0" x="36.0" style="fill:#1a1818"> rails_crossing </text>
<text y="583.5" x="0.0" style="fill:#1a1818"> = </text>
<text y="583.5" x="18.0" style="fill:#1a1818"> </text>
<text y="583.5" x="24.0" style="fill:#e90707">═</text>
<text y="583.5" x="30.0" style="fill:#1a1818"> </text>
<text y="583.5" x="36.0" style="fill:#1a1818"> rails_h </text>
<text y="595.0" x="0.0" style="fill:#1a1818"> § </text>
<text y="595.0" x="18.0" style="fill:#1a1818"> </text>
<text y="595.0" x="24.0" style="fill:#e90707">║</text>
<text y="595.0" x="30.0" style="fill:#1a1818"> </text>
<text y="595.0" x="36.0" style="fill:#1a1818"> rails_v </text>
<text y="606.5" x="0.0" style="fill:#1a1818"> ¹ </text>
<text y="606.5" x="18.0" style="fill:#1a1818"> </text>
<text y="606.5" x="24.0" style="fill:#e90707">╗</text>
<text y="606.5" x="30.0" style="fill:#1a1818"> </text>
<text y="606.5" x="36.0" style="fill:#1a1818"> rails_1 </text>
<text y="618.0" x="0.0" style="fill:#1a1818"> ² </text>
<text y="618.0" x="18.0" style="fill:#1a1818"> </text>
<text y="618.0" x="24.0" style="fill:#e90707">╔</text>
<text y="618.0" x="30.0" style="fill:#1a1818"> </text>
<text y="618.0" x="36.0" style="fill:#1a1818"> rails_2 </text>
<text y="629.5" x="0.0" style="fill:#1a1818"> ³ </text>
<text y="629.5" x="18.0" style="fill:#1a1818"> </text>
<text y="629.5" x="24.0" style="fill:#e90707">╝</text>
<text y="629.5" x="30.0" style="fill:#1a1818"> </text>
<text y="629.5" x="36.0" style="fill:#1a1818"> rails_3 </text>
<text y="641.0" x="0.0" style="fill:#1a1818"> ⁴ </text>
<text y="641.0" x="18.0" style="fill:#1a1818"> </text>
<text y="641.0" x="24.0" style="fill:#e90707">╚</text>
<text y="641.0" x="30.0" style="fill:#1a1818"> </text>
<text y="641.0" x="36.0" style="fill:#1a1818"> rails_4 </text>
<text y="652.5" x="0.0" style="fill:#1a1818"> ⁵ </text>
<text y="652.5" x="18.0" style="fill:#1a1818"> </text>
<text y="652.5" x="24.0" style="fill:#e90707">╦</text>
<text y="652.5" x="30.0" style="fill:#1a1818"> </text>
<text y="652.5" x="36.0" style="fill:#1a1818"> rails_5 </text>
<text y="664.0" x="0.0" style="fill:#1a1818"> ⁶ </text>
<text y="664.0" x="18.0" style="fill:#1a1818"> </text>
<text y="664.0" x="24.0" style="fill:#e90707">╩</text>
<text y="664.0" x="30.0" style="fill:#1a1818"> </text>
<text y="664.0" x="36.0" style="fill:#1a1818"> rails_6 </text>
<text y="675.5" x="0.0" style="fill:#1a1818"> ⁷ </text>
<text y="675.5" x="18.0" style="fill:#1a1818"> </text>
<text y="675.5" x="24.0" style="fill:#e90707">╣</text>
<text y="675.5" x="30.0" style="fill:#1a1818"> </text>
<text y="675.5" x="36.0" style="fill:#1a1818"> rails_7 </text>
<text y="687.0" x="0.0" style="fill:#1a1818"> ⁸ </text>
<text y="687.0" x="18.0" style="fill:#1a1818"> </text>
<text y="687.0" x="24.0" style="fill:#e90707">╠</text>
<text y="687.0" x="30.0" style="fill:#1a1818"> </text>
<text y="687.0" x="36.0" style="fill:#1a1818"> rails_8 </text>
<text y="698.5" x="0.0" style="fill:#1a1818"> ⁹ </text>
<text y="698.5" x="18.0" style="fill:#1a1818"> </text>
<text y="698.5" x="24.0" style="fill:#e90707">▪</text>
<text y="698.5" x="30.0" style="fill:#1a1818"> </text>
<text y="698.5" x="36.0" style="fill:#1a1818"> rails_none </text>
<text y="710.0" x="0.0" style="fill:#1a1818"> c </text>
<text y="710.0" x="18.0" style="fill:#1a1818"> </text>
<text y="710.0" x="24.0" style="fill:#e90707">╫</text>
<text y="710.0" x="30.0" style="fill:#1a1818"> </text>
<text y="710.0" x="36.0" style="fill:#1a1818"> street-rails-crossing-horizontal </text>
<text y="721.5" x="0.0" style="fill:#1a1818"> C </text>
<text y="721.5" x="18.0" style="fill:#1a1818"> </text>
<text y="721.5" x="24.0" style="fill:#e90707">╪</text>
<text y="721.5" x="30.0" style="fill:#1a1818"> </text>
<text y="721.5" x="36.0" style="fill:#1a1818"> street-rails-crossing-vertical </text>
<text y="733.0" x="0.0" style="fill:#1a1818"> j </text>
<text y="733.0" x="18.0" style="fill:#1a1818"> </text>
<text y="733.0" x="24.0" style="fill:#232323">║</text>
<text y="733.0" x="30.0" style="fill:#1a1818"> </text>
<text y="733.0" x="36.0" style="fill:#1a1818"> bridgev </text>
<text y="744.5" x="0.0" style="fill:#1a1818"> q </text>
<text y="744.5" x="18.0" style="fill:#1a1818"> </text>
<text y="744.5" x="24.0" style="fill:#232323">═</text>
<text y="744.5" x="30.0" style="fill:#1a1818"> </text>
<text y="744.5" x="36.0" style="fill:#1a1818"> bridgeh </text>
<text y="756.0" x="0.0" style="fill:#1a1818"> p </text>
<text y="756.0" x="18.0" style="fill:#1a1818"> </text>
<text y="756.0" x="24.0" style="fill:#268dca">▐</text>
<text y="756.0" x="30.0" style="fill:#1a1818"> </text>
<text y="756.0" x="36.0" style="fill:#1a1818"> pool_right </text>
<text y="767.5" x="0.0" style="fill:#1a1818"> P </text>
<text y="767.5" x="18.0" style="fill:#1a1818"> </text>
<text y="767.5" x="24.0" style="fill:#268dca">▌</text>
<text y="767.5" x="30.0" style="fill:#1a1818"> </text>
<text y="767.5" x="36.0" style="fill:#1a1818"> pool_left </text>
<text y="779.0" x="0.0" style="fill:#1a1818"> o </text>
<text y="779.0" x="18.0" style="fill:#1a1818"> </text>
<text y="779.0" x="24.0" style="fill:#268dca">●</text>
<text y="779.0" x="30.0" style="fill:#1a1818"> </text>
<text y="779.0" x="36.0" style="fill:#1a1818"> pond </text>
<text y="790.5" x="0.0" style="fill:#1a1818"> t </text>
<text y="790.5" x="18.0" style="fill:#1a1818"> </text>
<text y="790.5" x="24.0" style="fill:#232323">.</text>
<text y="790.5" x="30.0" style="fill:#1a1818"> </text>
<text y="790.5" x="36.0" style="fill:#1a1818"> Animal </text>
<text y="802.0" x="0.0" style="fill:#1a1818">   </text>
<text y="802.0" x="18.0" style="fill:#1a1818">   </text>
<text y="802.0" x="36.0" style="fill:#1a1818"> empty </text>
</svg>
