<?xml version="1.0" encoding="UTF-8" standalone="no"?>
    <svg xmlns="http://www.w3.org/2000/svg" version="1.1" width="240.0px" height="1437.5px" viewBox="0 0 240.0 1437.5" style="letter-spacing:0em;font-size:10px;font-family:&apos;DejaVu Sans Mono&apos;;stroke:none">
    <text y="8.5" x="0.0" style="fill:#000000">████████████████████████████████████████</text>
<text y="20.0" x="0.0" style="fill:#000000">████████████████████████████████████████</text>
<text y="31.5" x="0.0" style="fill:#000000">████████████████████████████████████████</text>
<text y="43.0" x="0.0" style="fill:#000000">███████████</text>
<text y="54.5" x="0.0" style="fill:#000000">███████████████████</text>
<text y="66.0" x="0.0" style="fill:#000000">████████████████</text>
<text y="77.5" x="0.0" style="fill:#000000">██████████</text>
<text y="89.0" x="0.0" style="fill:#000000">███████████</text>
<text y="100.5" x="0.0" style="fill:#000000">██████████</text>
<text y="112.0" x="0.0" style="fill:#000000">██████████</text>
<text y="123.5" x="0.0" style="fill:#000000">██████████████</text>
<text y="135.0" x="0.0" style="fill:#000000">██████████</text>
<text y="146.5" x="0.0" style="fill:#000000">████████████</text>
<text y="158.0" x="0.0" style="fill:#000000">█████████████████████</text>
<text y="169.5" x="0.0" style="fill:#000000">█████████████████████</text>
<text y="181.0" x="0.0" style="fill:#000000">████████████████████</text>
<text y="192.5" x="0.0" style="fill:#000000">████████████████████████</text>
<text y="204.0" x="0.0" style="fill:#000000">█████████████████████████</text>
<text y="215.5" x="0.0" style="fill:#000000">█████████████████████████</text>
<text y="227.0" x="0.0" style="fill:#000000">██████████████</text>
<text y="238.5" x="0.0" style="fill:#000000">█████████████████████████</text>
<text y="250.0" x="0.0" style="fill:#000000">████████████████</text>
<text y="261.5" x="0.0" style="fill:#000000">██████████</text>
<text y="273.0" x="0.0" style="fill:#000000">█████████████████</text>
<text y="284.5" x="0.0" style="fill:#000000">██████████████</text>
<text y="296.0" x="0.0" style="fill:#000000">███████████</text>
<text y="307.5" x="0.0" style="fill:#000000">██████████████████████</text>
<text y="319.0" x="0.0" style="fill:#000000">████████████</text>
<text y="330.5" x="0.0" style="fill:#000000">█████████████████████</text>
<text y="342.0" x="0.0" style="fill:#000000">██████████████</text>
<text y="353.5" x="0.0" style="fill:#000000">██████████████</text>
<text y="365.0" x="0.0" style="fill:#000000">██████████████</text>
<text y="376.5" x="0.0" style="fill:#000000">██████████████</text>
<text y="388.0" x="0.0" style="fill:#000000">██████████████</text>
<text y="399.5" x="0.0" style="fill:#000000">██████████████</text>
<text y="411.0" x="0.0" style="fill:#000000">██████████████</text>
<text y="422.5" x="0.0" style="fill:#000000">██████████████</text>
<text y="434.0" x="0.0" style="fill:#000000">██████████████</text>
<text y="445.5" x="0.0" style="fill:#000000">██████████████</text>
<text y="457.0" x="0.0" style="fill:#000000">███████████████</text>
<text y="468.5" x="0.0" style="fill:#000000">███████████████</text>
<text y="480.0" x="0.0" style="fill:#000000">███████████████</text>
<text y="491.5" x="0.0" style="fill:#000000">███████████████</text>
<text y="503.0" x="0.0" style="fill:#000000">█████████████████</text>
<text y="514.5" x="0.0" style="fill:#000000">██████████████</text>
<text y="526.0" x="0.0" style="fill:#000000">███████████████████████</text>
<text y="537.5" x="0.0" style="fill:#000000">████████████████</text>
<text y="549.0" x="0.0" style="fill:#000000">████████████████</text>
<text y="560.5" x="0.0" style="fill:#000000">████████████████</text>
<text y="572.0" x="0.0" style="fill:#000000">████████████████</text>
<text y="583.5" x="0.0" style="fill:#000000">████████████████</text>
<text y="595.0" x="0.0" style="fill:#000000">████████████████</text>
<text y="606.5" x="0.0" style="fill:#000000">████████████████</text>
<text y="618.0" x="0.0" style="fill:#000000">████████████████</text>
<text y="629.5" x="0.0" style="fill:#000000">████████████████</text>
<text y="641.0" x="0.0" style="fill:#000000">████████████████</text>
<text y="652.5" x="0.0" style="fill:#000000">███████████████████</text>
<text y="664.0" x="0.0" style="fill:#000000">████████████████</text>
<text y="675.5" x="0.0" style="fill:#000000">█████████████████</text>
<text y="687.0" x="0.0" style="fill:#000000">█████████████████</text>
<text y="698.5" x="0.0" style="fill:#000000">█████████████████</text>
<text y="710.0" x="0.0" style="fill:#000000">███████████</text>
<text y="721.5" x="0.0" style="fill:#000000">████████████████████</text>
<text y="733.0" x="0.0" style="fill:#000000">█████████████</text>
<text y="744.5" x="0.0" style="fill:#000000">█████████████</text>
<text y="756.0" x="0.0" style="fill:#000000">█████████████</text>
<text y="767.5" x="0.0" style="fill:#000000">█████████████</text>
<text y="779.0" x="0.0" style="fill:#000000">█████████████</text>
<text y="790.5" x="0.0" style="fill:#000000">█████████████</text>
<text y="802.0" x="0.0" style="fill:#000000">█████████████</text>
<text y="813.5" x="0.0" style="fill:#000000">█████████████</text>
<text y="825.0" x="0.0" style="fill:#000000">█████████████</text>
<text y="836.5" x="0.0" style="fill:#000000">█████████████</text>
<text y="848.0" x="0.0" style="fill:#000000">████████████████</text>
<text y="859.5" x="0.0" style="fill:#000000">██████████████</text>
<text y="871.0" x="0.0" style="fill:#000000">██████████████</text>
<text y="882.5" x="0.0" style="fill:#000000">██████████████</text>
<text y="894.0" x="0.0" style="fill:#000000">██████████████</text>
<text y="905.5" x="0.0" style="fill:#000000">███████████████████████████</text>
<text y="917.0" x="0.0" style="fill:#000000">████████████████████████████████████</text>
<text y="928.5" x="0.0" style="fill:#000000">██████████████</text>
<text y="940.0" x="0.0" style="fill:#000000">████████████████</text>
<text y="951.5" x="0.0" style="fill:#000000">█████████████████</text>
<text y="963.0" x="0.0" style="fill:#000000">█████████████████</text>
<text y="974.5" x="0.0" style="fill:#000000">█████████████████</text>
<text y="986.0" x="0.0" style="fill:#000000">███████████████████████</text>
<text y="997.5" x="0.0" style="fill:#000000">████████████████</text>
<text y="1009.0" x="0.0" style="fill:#000000">████████████████</text>
<text y="1020.5" x="0.0" style="fill:#000000">████████████████</text>
<text y="1032.0" x="0.0" style="fill:#000000">████████████████</text>
<text y="1043.5" x="0.0" style="fill:#000000">████████████████</text>
<text y="1055.0" x="0.0" style="fill:#000000">████████████████</text>
<text y="1066.5" x="0.0" style="fill:#000000">████████████████</text>
<text y="1078.0" x="0.0" style="fill:#000000">████████████████</text>
<text y="1089.5" x="0.0" style="fill:#000000">████████████████</text>
<text y="1101.0" x="0.0" style="fill:#000000">████████████████</text>
<text y="1112.5" x="0.0" style="fill:#000000">███████████████████</text>
<text y="1124.0" x="0.0" style="fill:#000000">████████████</text>
<text y="1135.5" x="0.0" style="fill:#000000">█████████████</text>
<text y="1147.0" x="0.0" style="fill:#000000">████████████████</text>
<text y="1158.5" x="0.0" style="fill:#000000">███████████████</text>
<text y="1170.0" x="0.0" style="fill:#000000">██████████</text>
<text y="1181.5" x="0.0" style="fill:#000000">██████████████</text>
<text y="1193.0" x="0.0" style="fill:#000000">████████████</text>
<text y="1204.5" x="0.0" style="fill:#000000">███████████</text>
<text y="1216.0" x="0.0" style="fill:#000000">██████████████</text>
<text y="1227.5" x="0.0" style="fill:#000000">███████████</text>
<text y="1239.0" x="0.0" style="fill:#000000">████████████████████████████</text>
<text y="1250.5" x="0.0" style="fill:#000000">██████████</text>
<text y="1262.0" x="0.0" style="fill:#000000">████████████</text>
<text y="1273.5" x="0.0" style="fill:#000000">████████████</text>
<text y="1285.0" x="0.0" style="fill:#000000">███████████████████</text>
<text y="1296.5" x="0.0" style="fill:#000000">████████████</text>
<text y="1308.0" x="0.0" style="fill:#000000">████████████</text>
<text y="1319.5" x="0.0" style="fill:#000000">████████████</text>
<text y="1331.0" x="0.0" style="fill:#000000">████████████</text>
<text y="1342.5" x="0.0" style="fill:#000000">████████████</text>
<text y="1354.0" x="0.0" style="fill:#000000">████████████</text>
<text y="1365.5" x="0.0" style="fill:#000000">████████████</text>
<text y="1377.0" x="0.0" style="fill:#000000">████████████</text>
<text y="1388.5" x="0.0" style="fill:#000000">█████████████</text>
<text y="1400.0" x="0.0" style="fill:#000000">█████████████</text>
<text y="1411.5" x="0.0" style="fill:#000000">█████████████</text>
<text y="1423.0" x="0.0" style="fill:#000000">█████████████</text>
<text y="1434.5" x="0.0" style="fill:#000000">███████████████</text>
<text y="8.5" x="0.0" style="fill:#cdcdcd">╔══════════════════╦════════╦══════════╗</text>
<text y="20.0" x="0.0" style="fill:#cdcdcd">║         Legend for Mapmakers         ║</text>
<text y="31.5" x="0.0" style="fill:#cdcdcd">╚════════╦═════════╩════════╩══════════╝</text>
<text y="43.0" x="0.0" style="fill:#cdcdcd"> w ≈ water </text>
<text y="54.5" x="0.0" style="fill:#cdcdcd"> W ~ water_shallow </text>
<text y="66.0" x="0.0" style="fill:#cdcdcd"> D ≈ water_deep </text>
<text y="77.5" x="0.0" style="fill:#cdcdcd"> , ░ sand </text>
<text y="89.0" x="0.0" style="fill:#cdcdcd"> . " grass </text>
<text y="100.5" x="0.0" style="fill:#cdcdcd"> i ▓ snow </text>
<text y="112.0" x="0.0" style="fill:#cdcdcd"> l ░ lava </text>
<text y="123.5" x="0.0" style="fill:#cdcdcd"> y ▉ farmland </text>
<text y="135.0" x="0.0" style="fill:#cdcdcd"> U ░ dirt </text>
<text y="146.5" x="0.0" style="fill:#cdcdcd"> ; ░ gravel </text>
<text y="158.0" x="0.0" style="fill:#cdcdcd"> a ● forest on grass </text>
<text y="169.5" x="0.0" style="fill:#cdcdcd"> ä ● forest on plaza </text>
<text y="181.0" x="0.0" style="fill:#cdcdcd"> â ● forest on sand </text>
<text y="192.5" x="0.0" style="fill:#cdcdcd"> u * palmforest on sand </text>
<text y="204.0" x="0.0" style="fill:#cdcdcd"> ü * palmforest on plaza </text>
<text y="215.5" x="0.0" style="fill:#cdcdcd"> ú * palmforest on grass </text>
<text y="227.0" x="0.0" style="fill:#cdcdcd"> b ▘ building </text>
<text y="238.5" x="0.0" style="fill:#cdcdcd"> B █ multiblock_building </text>
<text y="250.0" x="0.0" style="fill:#cdcdcd"> L ◘ lighthouse </text>
<text y="261.5" x="0.0" style="fill:#cdcdcd"> O ○ Well </text>
<text y="273.0" x="0.0" style="fill:#cdcdcd"> g ⌂ gravestones </text>
<text y="284.5" x="0.0" style="fill:#cdcdcd"> m ▲ mountain </text>
<text y="296.0" x="0.0" style="fill:#cdcdcd"> s █ plaza </text>
<text y="307.5" x="0.0" style="fill:#cdcdcd"> S █ plaza_connecting </text>
<text y="319.0" x="0.0" style="fill:#cdcdcd"> x ┃ street </text>
<text y="330.5" x="0.0" style="fill:#cdcdcd"> 0 ╋ street_crossing </text>
<text y="342.0" x="0.0" style="fill:#cdcdcd"> - ━ street_h </text>
<text y="353.5" x="0.0" style="fill:#cdcdcd"> | ┃ street_v </text>
<text y="365.0" x="0.0" style="fill:#cdcdcd"> 1 ┓ street_1 </text>
<text y="376.5" x="0.0" style="fill:#cdcdcd"> 2 ┏ street_2 </text>
<text y="388.0" x="0.0" style="fill:#cdcdcd"> 3 ┛ street_3 </text>
<text y="399.5" x="0.0" style="fill:#cdcdcd"> 4 ┗ street_4 </text>
<text y="411.0" x="0.0" style="fill:#cdcdcd"> 5 ┳ street_5 </text>
<text y="422.5" x="0.0" style="fill:#cdcdcd"> 6 ┻ street_6 </text>
<text y="434.0" x="0.0" style="fill:#cdcdcd"> 7 ┫ street_7 </text>
<text y="445.5" x="0.0" style="fill:#cdcdcd"> 8 ┣ street_8 </text>
<text y="457.0" x="0.0" style="fill:#cdcdcd"> ╹ ╹ street_10 </text>
<text y="468.5" x="0.0" style="fill:#cdcdcd"> ╻ ╻ street_11 </text>
<text y="480.0" x="0.0" style="fill:#cdcdcd"> ╺ ╺ street_12 </text>
<text y="491.5" x="0.0" style="fill:#cdcdcd"> ╸ ╸ street_12 </text>
<text y="503.0" x="0.0" style="fill:#cdcdcd"> 9 ▪ street_none </text>
<text y="514.5" x="0.0" style="fill:#cdcdcd"> + ╷ dirtroad </text>
<text y="526.0" x="0.0" style="fill:#cdcdcd"> ₀ ┼ dirtroad_crossing </text>
<text y="537.5" x="0.0" style="fill:#cdcdcd"> ~ ─ dirtroad_h </text>
<text y="549.0" x="0.0" style="fill:#cdcdcd"> ! │ dirtroad_v </text>
<text y="560.5" x="0.0" style="fill:#cdcdcd"> ₁ ┐ dirtroad_1 </text>
<text y="572.0" x="0.0" style="fill:#cdcdcd"> ₂ ┌ dirtroad_2 </text>
<text y="583.5" x="0.0" style="fill:#cdcdcd"> ₃ ┘ dirtroad_3 </text>
<text y="595.0" x="0.0" style="fill:#cdcdcd"> ₄ └ dirtroad_4 </text>
<text y="606.5" x="0.0" style="fill:#cdcdcd"> ₅ ┬ dirtroad_5 </text>
<text y="618.0" x="0.0" style="fill:#cdcdcd"> ₆ ┴ dirtroad_6 </text>
<text y="629.5" x="0.0" style="fill:#cdcdcd"> ₇ ┤ dirtroad_7 </text>
<text y="641.0" x="0.0" style="fill:#cdcdcd"> ₈ ├ dirtroad_8 </text>
<text y="652.5" x="0.0" style="fill:#cdcdcd"> ₉ ▪ dirtroad_none </text>
<text y="664.0" x="0.0" style="fill:#cdcdcd"> ╴ ╴ dirtroad_9 </text>
<text y="675.5" x="0.0" style="fill:#cdcdcd"> ╶ ╶ dirtroad_10 </text>
<text y="687.0" x="0.0" style="fill:#cdcdcd"> ╵ ╵ dirtroad_11 </text>
<text y="698.5" x="0.0" style="fill:#cdcdcd"> ╷ ╷ dirtroad_12 </text>
<text y="710.0" x="0.0" style="fill:#cdcdcd"> r ║ rails </text>
<text y="721.5" x="0.0" style="fill:#cdcdcd"> ⁰ ╬ rails_crossing </text>
<text y="733.0" x="0.0" style="fill:#cdcdcd"> = ═ rails_h </text>
<text y="744.5" x="0.0" style="fill:#cdcdcd"> § ║ rails_v </text>
<text y="756.0" x="0.0" style="fill:#cdcdcd"> ¹ ╗ rails_1 </text>
<text y="767.5" x="0.0" style="fill:#cdcdcd"> ² ╔ rails_2 </text>
<text y="779.0" x="0.0" style="fill:#cdcdcd"> ³ ╝ rails_3 </text>
<text y="790.5" x="0.0" style="fill:#cdcdcd"> ⁴ ╚ rails_4 </text>
<text y="802.0" x="0.0" style="fill:#cdcdcd"> ⁵ ╦ rails_5 </text>
<text y="813.5" x="0.0" style="fill:#cdcdcd"> ⁶ ╩ rails_6 </text>
<text y="825.0" x="0.0" style="fill:#cdcdcd"> ⁷ ╣ rails_7 </text>
<text y="836.5" x="0.0" style="fill:#cdcdcd"> ⁸ ╠ rails_8 </text>
<text y="848.0" x="0.0" style="fill:#cdcdcd"> ⁹ ▪ rails_none </text>
<text y="859.5" x="0.0" style="fill:#cdcdcd"> ⒑ ═ rails_10 </text>
<text y="871.0" x="0.0" style="fill:#cdcdcd"> ⒒ ═ rails_11 </text>
<text y="882.5" x="0.0" style="fill:#cdcdcd"> ⒓ ║ rails_12 </text>
<text y="894.0" x="0.0" style="fill:#cdcdcd"> ⒔ ║ rails_13 </text>
<text y="905.5" x="0.0" style="fill:#cdcdcd"> c ╫ street-rails-crossing </text>
<text y="917.0" x="0.0" style="fill:#cdcdcd"> C ╪ street-rails-crossing-vertical </text>
<text y="928.5" x="0.0" style="fill:#cdcdcd"> * ╵ waterway </text>
<text y="940.0" x="0.0" style="fill:#cdcdcd"> ⑮ ╴ waterway_9 </text>
<text y="951.5" x="0.0" style="fill:#cdcdcd"> ⑯ ╶ waterway_10 </text>
<text y="963.0" x="0.0" style="fill:#cdcdcd"> ⑰ ╵ waterway_11 </text>
<text y="974.5" x="0.0" style="fill:#cdcdcd"> ⑱ ╷ waterway_12 </text>
<text y="986.0" x="0.0" style="fill:#cdcdcd"> ⑩ ┼ waterway_crossing </text>
<text y="997.5" x="0.0" style="fill:#cdcdcd"> ⑪ ─ waterway_h </text>
<text y="1009.0" x="0.0" style="fill:#cdcdcd"> ⑫ │ waterway_v </text>
<text y="1020.5" x="0.0" style="fill:#cdcdcd"> ① ┐ waterway_1 </text>
<text y="1032.0" x="0.0" style="fill:#cdcdcd"> ② ┌ waterway_2 </text>
<text y="1043.5" x="0.0" style="fill:#cdcdcd"> ③ ┘ waterway_3 </text>
<text y="1055.0" x="0.0" style="fill:#cdcdcd"> ④ └ waterway_4 </text>
<text y="1066.5" x="0.0" style="fill:#cdcdcd"> ⑤ ┬ waterway_5 </text>
<text y="1078.0" x="0.0" style="fill:#cdcdcd"> ⑥ ┴ waterway_6 </text>
<text y="1089.5" x="0.0" style="fill:#cdcdcd"> ⑦ ┤ waterway_7 </text>
<text y="1101.0" x="0.0" style="fill:#cdcdcd"> ⑧ ├ waterway_8 </text>
<text y="1112.5" x="0.0" style="fill:#cdcdcd"> ⑨ ▪ waterway_none </text>
<text y="1124.0" x="0.0" style="fill:#cdcdcd"> q ═ bridge </text>
<text y="1135.5" x="0.0" style="fill:#cdcdcd"> j ║ bridgev </text>
<text y="1147.0" x="0.0" style="fill:#cdcdcd"> p ▐ pool_right </text>
<text y="1158.5" x="0.0" style="fill:#cdcdcd"> P ▌ pool_left </text>
<text y="1170.0" x="0.0" style="fill:#cdcdcd"> o ● pond </text>
<text y="1181.5" x="0.0" style="fill:#cdcdcd"> F ✈ airplane </text>
<text y="1193.0" x="0.0" style="fill:#cdcdcd"> t . animal </text>
<text y="1204.5" x="0.0" style="fill:#cdcdcd"> ? ? label </text>
<text y="1216.0" x="0.0" style="fill:#cdcdcd"> $ $ debugger </text>
<text y="1227.5" x="0.0" style="fill:#cdcdcd"> E E error </text>
<text y="1239.0" x="0.0" style="fill:#cdcdcd"> N N null space for testing </text>
<text y="1250.5" x="0.0" style="fill:#cdcdcd"> ¬ ▗ wall </text>
<text y="1262.0" x="0.0" style="fill:#cdcdcd"> ᴬ ▐ wall_v </text>
<text y="1273.5" x="0.0" style="fill:#cdcdcd"> ᴮ ▀ wall_h </text>
<text y="1285.0" x="0.0" style="fill:#cdcdcd"> ᴰ ▜ wall_crossing </text>
<text y="1296.5" x="0.0" style="fill:#cdcdcd"> ᴱ ▜ wall_1 </text>
<text y="1308.0" x="0.0" style="fill:#cdcdcd"> ᴳ ▐ wall_2 </text>
<text y="1319.5" x="0.0" style="fill:#cdcdcd"> ᴴ ▀ wall_3 </text>
<text y="1331.0" x="0.0" style="fill:#cdcdcd"> ᴵ ▝ wall_4 </text>
<text y="1342.5" x="0.0" style="fill:#cdcdcd"> ᴶ ▜ wall_5 </text>
<text y="1354.0" x="0.0" style="fill:#cdcdcd"> ᴷ ▀ wall_6 </text>
<text y="1365.5" x="0.0" style="fill:#cdcdcd"> ᴸ ▜ wall_7 </text>
<text y="1377.0" x="0.0" style="fill:#cdcdcd"> ᴹ ▐ wall_8 </text>
<text y="1388.5" x="0.0" style="fill:#cdcdcd"> ᴺ ▝ wall_10 </text>
<text y="1400.0" x="0.0" style="fill:#cdcdcd"> ᴼ ▗ wall_11 </text>
<text y="1411.5" x="0.0" style="fill:#cdcdcd"> ᴾ ▝ wall_12 </text>
<text y="1423.0" x="0.0" style="fill:#cdcdcd"> ᴿ ▘ wall_12 </text>
<text y="1434.5" x="0.0" style="fill:#cdcdcd"> ᵀ ▜ wall_none </text>
</svg>
