<?xml version="1.0" encoding="UTF-8" standalone="no"?>
    <svg xmlns="http://www.w3.org/2000/svg" version="1.1" width="186.0px" height="161.0px" viewBox="0 0 186.0 161.0" style="letter-spacing:0em;font-size:10px;font-family:&apos;DejaVu Sans Mono&apos;;stroke:none">
    <text y="8.5" x="0.0" style="fill:#eab91c">███████████████████████████████</text>
<text y="20.0" x="0.0" style="fill:#eab91c">███████████████████████████████</text>
<text y="31.5" x="0.0" style="fill:#eab91c">█████████████████████████████</text>
<text y="31.5" x="174.0" style="fill:#eab91c">█</text>
<text y="31.5" x="180.0" style="fill:#cdcdcd">█</text>
<text y="43.0" x="0.0" style="fill:#eab91c">██████████</text>
<text y="43.0" x="60.0" style="fill:#eab91c">█████████████</text>
<text y="43.0" x="138.0" style="fill:#eab91c">███</text>
<text y="43.0" x="156.0" style="fill:#cdcdcd">█</text>
<text y="43.0" x="162.0" style="fill:#eab91c">█</text>
<text y="43.0" x="168.0" style="fill:#eab91c">█</text>
<text y="43.0" x="174.0" style="fill:#cdcdcd">██</text>
<text y="54.5" x="0.0" style="fill:#eab91c">█████████████████████████</text>
<text y="54.5" x="150.0" style="fill:#eab91c">█</text>
<text y="54.5" x="156.0" style="fill:#cdcdcd">██</text>
<text y="54.5" x="168.0" style="fill:#eab91c">██</text>
<text y="54.5" x="180.0" style="fill:#cdcdcd">█</text>
<text y="66.0" x="0.0" style="fill:#eab91c">████████████████</text>
<text y="66.0" x="96.0" style="fill:#eab91c">███</text>
<text y="66.0" x="114.0" style="fill:#eab91c">████████</text>
<text y="66.0" x="162.0" style="fill:#cdcdcd">██</text>
<text y="66.0" x="174.0" style="fill:#eab91c">█</text>
<text y="66.0" x="180.0" style="fill:#cdcdcd">█</text>
<text y="77.5" x="0.0" style="fill:#eab91c">████████████████</text>
<text y="77.5" x="96.0" style="fill:#cdcdcd">█</text>
<text y="77.5" x="102.0" style="fill:#cdcdcd">█</text>
<text y="77.5" x="108.0" style="fill:#cdcdcd">██</text>
<text y="77.5" x="120.0" style="fill:#eab91c">██</text>
<text y="77.5" x="132.0" style="fill:#eab91c">██</text>
<text y="77.5" x="144.0" style="fill:#eab91c">█</text>
<text y="77.5" x="150.0" style="fill:#cdcdcd">████</text>
<text y="77.5" x="174.0" style="fill:#eab91c">█</text>
<text y="77.5" x="180.0" style="fill:#cdcdcd">█</text>
<text y="89.0" x="0.0" style="fill:#eab91c">███████████████</text>
<text y="89.0" x="90.0" style="fill:#eab91c">█</text>
<text y="89.0" x="96.0" style="fill:#cdcdcd">██</text>
<text y="89.0" x="108.0" style="fill:#cdcdcd">█</text>
<text y="89.0" x="114.0" style="fill:#cdcdcd">███</text>
<text y="89.0" x="132.0" style="fill:#eab91c">█</text>
<text y="89.0" x="138.0" style="fill:#eab91c">██</text>
<text y="89.0" x="150.0" style="fill:#cdcdcd">████</text>
<text y="89.0" x="174.0" style="fill:#eab91c">█</text>
<text y="89.0" x="180.0" style="fill:#cdcdcd">█</text>
<text y="100.5" x="0.0" style="fill:#eab91c">████████████████</text>
<text y="100.5" x="96.0" style="fill:#cdcdcd">█</text>
<text y="100.5" x="102.0" style="fill:#cdcdcd">█</text>
<text y="100.5" x="108.0" style="fill:#eab91c">█</text>
<text y="100.5" x="114.0" style="fill:#cdcdcd">█</text>
<text y="100.5" x="120.0" style="fill:#eab91c">█</text>
<text y="100.5" x="126.0" style="fill:#cdcdcd">█</text>
<text y="100.5" x="132.0" style="fill:#eab91c">█</text>
<text y="100.5" x="138.0" style="fill:#eab91c">██████</text>
<text y="100.5" x="174.0" style="fill:#cdcdcd">██</text>
<text y="112.0" x="0.0" style="fill:#eab91c">██████████████</text>
<text y="112.0" x="84.0" style="fill:#eab91c">█</text>
<text y="112.0" x="90.0" style="fill:#eab91c">██</text>
<text y="112.0" x="102.0" style="fill:#cdcdcd">███</text>
<text y="112.0" x="120.0" style="fill:#cdcdcd">█</text>
<text y="112.0" x="126.0" style="fill:#cdcdcd">█</text>
<text y="112.0" x="132.0" style="fill:#eab91c">█</text>
<text y="112.0" x="138.0" style="fill:#eab91c">██████</text>
<text y="112.0" x="174.0" style="fill:#cdcdcd">██</text>
<text y="123.5" x="0.0" style="fill:#eab91c">█████████████████</text>
<text y="123.5" x="102.0" style="fill:#eab91c">███</text>
<text y="123.5" x="120.0" style="fill:#cdcdcd">█</text>
<text y="123.5" x="126.0" style="fill:#eab91c">█</text>
<text y="123.5" x="132.0" style="fill:#eab91c">██</text>
<text y="123.5" x="144.0" style="fill:#eab91c">█</text>
<text y="123.5" x="150.0" style="fill:#cdcdcd">█████</text>
<text y="123.5" x="180.0" style="fill:#eab91c">█</text>
<text y="135.0" x="0.0" style="fill:#eab91c">█████████████████████</text>
<text y="135.0" x="126.0" style="fill:#eab91c">█</text>
<text y="135.0" x="132.0" style="fill:#eab91c">██</text>
<text y="135.0" x="144.0" style="fill:#cdcdcd">███████</text>
<text y="146.5" x="0.0" style="fill:#eab91c">████████████████████████</text>
<text y="146.5" x="144.0" style="fill:#eab91c">█</text>
<text y="146.5" x="150.0" style="fill:#cdcdcd">█</text>
<text y="146.5" x="156.0" style="fill:#eab91c">███</text>
<text y="146.5" x="174.0" style="fill:#cdcdcd">█</text>
<text y="146.5" x="180.0" style="fill:#eab91c">█</text>
<text y="158.0" x="0.0" style="fill:#eab91c">███████████████████████████</text>
<text y="158.0" x="162.0" style="fill:#eab91c">█</text>
<text y="158.0" x="168.0" style="fill:#cdcdcd">█</text>
<text y="158.0" x="174.0" style="fill:#eab91c">██</text>
<text y="8.5" x="0.0" style="fill:#cdcdcd">░░░░░░░░░░░░░░░░░░░░░░░░░░░░░░░</text>
<text y="20.0" x="0.0" style="fill:#cdcdcd">░░░░░░░░░░░░░░░░░░░░░░░░░░░░░░░</text>
<text y="31.5" x="0.0" style="fill:#cdcdcd">░░░░░░░░░░░░░░░░░░░░░░░░░░░░░</text>
<text y="31.5" x="174.0" style="fill:#232323">▲</text>
<text y="31.5" x="180.0" style="fill:#232323">▲</text>
<text y="43.0" x="0.0" style="fill:#cdcdcd">░░░░░░░░░░</text>
<text y="43.0" x="60.0" style="fill:#1a1818"> Hirane Town </text>
<text y="43.0" x="138.0" style="fill:#cdcdcd">░░░</text>
<text y="43.0" x="156.0" style="fill:#232323">▲</text>
<text y="43.0" x="162.0" style="fill:#232323">▲</text>
<text y="43.0" x="168.0" style="fill:#cdcdcd">░</text>
<text y="43.0" x="174.0" style="fill:#232323">▲▲</text>
<text y="54.5" x="0.0" style="fill:#cdcdcd">░░░░░░░░░░░░░░░░░░░░░░░░░</text>
<text y="54.5" x="150.0" style="fill:#232323">▲</text>
<text y="54.5" x="156.0" style="fill:#232323">▲▲</text>
<text y="54.5" x="168.0" style="fill:#cdcdcd">░░</text>
<text y="54.5" x="180.0" style="fill:#232323">▲</text>
<text y="66.0" x="0.0" style="fill:#cdcdcd">░░░░░░░░░░░░░░░░</text>
<text y="66.0" x="96.0" style="fill:#301602">┌─┐</text>
<text y="66.0" x="114.0" style="fill:#cdcdcd">░░░░░░░░</text>
<text y="66.0" x="162.0" style="fill:#232323">▲▲</text>
<text y="66.0" x="174.0" style="fill:#cdcdcd">░</text>
<text y="66.0" x="180.0" style="fill:#232323">▲</text>
<text y="77.5" x="0.0" style="fill:#cdcdcd">░░░░░░░░░░░░░░░░</text>
<text y="77.5" x="96.0" style="fill:#301602">│</text>
<text y="77.5" x="102.0" style="fill:#232323">▪</text>
<text y="77.5" x="108.0" style="fill:#301602">└┐</text>
<text y="77.5" x="120.0" style="fill:#232323">▪▪</text>
<text y="77.5" x="132.0" style="fill:#cdcdcd">░░</text>
<text y="77.5" x="144.0" style="fill:#232323">▲</text>
<text y="77.5" x="150.0" style="fill:#232323">▲▲▲▲</text>
<text y="77.5" x="174.0" style="fill:#cdcdcd">░</text>
<text y="77.5" x="180.0" style="fill:#232323">▲</text>
<text y="89.0" x="0.0" style="fill:#cdcdcd">░░░░░░░░░░░░░░░</text>
<text y="89.0" x="90.0" style="fill:#232323">▪</text>
<text y="89.0" x="96.0" style="fill:#301602">└┐</text>
<text y="89.0" x="108.0" style="fill:#232323">▪</text>
<text y="89.0" x="114.0" style="fill:#301602">└──</text>
<text y="89.0" x="132.0" style="fill:#301602">┐</text>
<text y="89.0" x="138.0" style="fill:#cdcdcd">░░</text>
<text y="89.0" x="150.0" style="fill:#232323">▲▲▲▲</text>
<text y="89.0" x="174.0" style="fill:#cdcdcd">░</text>
<text y="89.0" x="180.0" style="fill:#232323">▲</text>
<text y="100.5" x="0.0" style="fill:#cdcdcd">░░░░░░░░░░░░░░░░</text>
<text y="100.5" x="96.0" style="fill:#232323">▪</text>
<text y="100.5" x="102.0" style="fill:#301602">│</text>
<text y="100.5" x="108.0" style="fill:#cdcdcd">░</text>
<text y="100.5" x="114.0" style="fill:#268dca">▐</text>
<text y="100.5" x="120.0" style="fill:#cdcdcd">░</text>
<text y="100.5" x="126.0" style="fill:#232323">▪</text>
<text y="100.5" x="132.0" style="fill:#301602">│</text>
<text y="100.5" x="138.0" style="fill:#cdcdcd">░░░░░░</text>
<text y="100.5" x="174.0" style="fill:#232323">▲▲</text>
<text y="112.0" x="0.0" style="fill:#cdcdcd">░░░░░░░░░░░░░░</text>
<text y="112.0" x="84.0" style="fill:#232323">▪</text>
<text y="112.0" x="90.0" style="fill:#301602">──</text>
<text y="112.0" x="102.0" style="fill:#301602">┴──</text>
<text y="112.0" x="120.0" style="fill:#232323">▪</text>
<text y="112.0" x="126.0" style="fill:#301602">┌</text>
<text y="112.0" x="132.0" style="fill:#301602">┘</text>
<text y="112.0" x="138.0" style="fill:#cdcdcd">░░░░░░</text>
<text y="112.0" x="174.0" style="fill:#232323">▲▲</text>
<text y="123.5" x="0.0" style="fill:#cdcdcd">░░░░░░░░░░░░░░░░░</text>
<text y="123.5" x="102.0" style="fill:#232323">▪▪▪</text>
<text y="123.5" x="120.0" style="fill:#301602">─</text>
<text y="123.5" x="126.0" style="fill:#301602">┘</text>
<text y="123.5" x="132.0" style="fill:#cdcdcd">░░</text>
<text y="123.5" x="144.0" style="fill:#232323">▲</text>
<text y="123.5" x="150.0" style="fill:#232323">▲▲▲▲▲</text>
<text y="123.5" x="180.0" style="fill:#cdcdcd">░</text>
<text y="135.0" x="0.0" style="fill:#cdcdcd">░░░░░░░░░░░░░░░░░░░░░</text>
<text y="135.0" x="126.0" style="fill:#232323">▪</text>
<text y="135.0" x="132.0" style="fill:#cdcdcd">░░</text>
<text y="135.0" x="144.0" style="fill:#232323">▲▲▲▲▲▲▲</text>
<text y="146.5" x="0.0" style="fill:#cdcdcd">░░░░░░░░░░░░░░░░░░░░░░░░</text>
<text y="146.5" x="144.0" style="fill:#232323">▲</text>
<text y="146.5" x="150.0" style="fill:#232323">▲</text>
<text y="146.5" x="156.0" style="fill:#cdcdcd">░░░</text>
<text y="146.5" x="174.0" style="fill:#232323">▲</text>
<text y="146.5" x="180.0" style="fill:#232323">▲</text>
<text y="158.0" x="0.0" style="fill:#cdcdcd">░░░░░░░░░░░░░░░░░░░░░░░░░░░</text>
<text y="158.0" x="162.0" style="fill:#232323">▲</text>
<text y="158.0" x="168.0" style="fill:#232323">▲</text>
<text y="158.0" x="174.0" style="fill:#cdcdcd">░░</text>
</svg>
