<?xml version="1.0" encoding="UTF-8" standalone="no"?>
    <svg xmlns="http://www.w3.org/2000/svg" version="1.1" width="126.0px" height="126.5px" viewBox="0 0 126.0 126.5" style="letter-spacing:0em;font-size:10px;font-family:&apos;DejaVu Sans Mono&apos;;stroke:none">
    <text y="8.5" x="0.0" style="fill:#268dca">█</text>
<text y="8.5" x="6.0" style="fill:#eab91c">█</text>
<text y="8.5" x="12.0" style="fill:#34d231">█</text>
<text y="8.5" x="18.0" style="fill:#eab91c">████████████</text>
<text y="8.5" x="90.0" style="fill:#34d231">██████</text>
<text y="20.0" x="0.0" style="fill:#268dca">█</text>
<text y="20.0" x="6.0" style="fill:#eab91c">█</text>
<text y="20.0" x="12.0" style="fill:#cdcdcd">██</text>
<text y="20.0" x="24.0" style="fill:#34d231">█</text>
<text y="20.0" x="30.0" style="fill:#cdcdcd">██████</text>
<text y="20.0" x="66.0" style="fill:#34d231">█</text>
<text y="20.0" x="72.0" style="fill:#34d231">█████████</text>
<text y="31.5" x="0.0" style="fill:#268dca">█</text>
<text y="31.5" x="6.0" style="fill:#eab91c">█</text>
<text y="31.5" x="12.0" style="fill:#cdcdcd">█</text>
<text y="31.5" x="18.0" style="fill:#34d231">█</text>
<text y="31.5" x="24.0" style="fill:#34d231">█</text>
<text y="31.5" x="30.0" style="fill:#cdcdcd">███████</text>
<text y="31.5" x="72.0" style="fill:#34d231">██</text>
<text y="31.5" x="84.0" style="fill:#34d231">███████</text>
<text y="43.0" x="0.0" style="fill:#268dca">█</text>
<text y="43.0" x="6.0" style="fill:#eab91c">█</text>
<text y="43.0" x="12.0" style="fill:#cdcdcd">████</text>
<text y="43.0" x="36.0" style="fill:#34d231">█</text>
<text y="43.0" x="42.0" style="fill:#34d231">█</text>
<text y="43.0" x="48.0" style="fill:#eab91c">█</text>
<text y="43.0" x="54.0" style="fill:#34d231">█</text>
<text y="43.0" x="60.0" style="fill:#eab91c">█</text>
<text y="43.0" x="66.0" style="fill:#cdcdcd">███</text>
<text y="43.0" x="84.0" style="fill:#34d231">███████</text>
<text y="54.5" x="0.0" style="fill:#268dca">█</text>
<text y="54.5" x="6.0" style="fill:#eab91c">█</text>
<text y="54.5" x="12.0" style="fill:#cdcdcd">█</text>
<text y="54.5" x="18.0" style="fill:#eab91c">█</text>
<text y="54.5" x="24.0" style="fill:#eab91c">█</text>
<text y="54.5" x="30.0" style="fill:#34d231">█</text>
<text y="54.5" x="36.0" style="fill:#268dca">█████</text>
<text y="54.5" x="66.0" style="fill:#268dca">█</text>
<text y="54.5" x="72.0" style="fill:#268dca">█</text>
<text y="54.5" x="78.0" style="fill:#eab91c">█</text>
<text y="54.5" x="84.0" style="fill:#34d231">██</text>
<text y="54.5" x="96.0" style="fill:#268dca">█████</text>
<text y="66.0" x="0.0" style="fill:#268dca">█</text>
<text y="66.0" x="6.0" style="fill:#cdcdcd">█</text>
<text y="66.0" x="12.0" style="fill:#cdcdcd">█</text>
<text y="66.0" x="18.0" style="fill:#eab91c">█</text>
<text y="66.0" x="24.0" style="fill:#34d231">█</text>
<text y="66.0" x="30.0" style="fill:#eab91c">█</text>
<text y="66.0" x="36.0" style="fill:#268dca">█</text>
<text y="66.0" x="42.0" style="fill:#34d231">█</text>
<text y="66.0" x="48.0" style="fill:#eab91c">█</text>
<text y="66.0" x="54.0" style="fill:#34d231">█</text>
<text y="66.0" x="60.0" style="fill:#eab91c">█</text>
<text y="66.0" x="66.0" style="fill:#cdcdcd">█</text>
<text y="66.0" x="72.0" style="fill:#268dca">█████</text>
<text y="66.0" x="102.0" style="fill:#34d231">████</text>
<text y="77.5" x="0.0" style="fill:#268dca">█</text>
<text y="77.5" x="6.0" style="fill:#34d231">█</text>
<text y="77.5" x="12.0" style="fill:#eab91c">█</text>
<text y="77.5" x="18.0" style="fill:#34d231">███</text>
<text y="77.5" x="36.0" style="fill:#268dca">█</text>
<text y="77.5" x="42.0" style="fill:#cdcdcd">█████</text>
<text y="77.5" x="72.0" style="fill:#34d231">█</text>
<text y="77.5" x="78.0" style="fill:#eab91c">██</text>
<text y="77.5" x="90.0" style="fill:#34d231">███</text>
<text y="77.5" x="108.0" style="fill:#34d231">███</text>
<text y="89.0" x="0.0" style="fill:#268dca">███████</text>
<text y="89.0" x="42.0" style="fill:#cdcdcd">█</text>
<text y="89.0" x="48.0" style="fill:#34d231">█</text>
<text y="89.0" x="54.0" style="fill:#34d231">█</text>
<text y="89.0" x="60.0" style="fill:#34d231">███</text>
<text y="89.0" x="78.0" style="fill:#34d231">█</text>
<text y="89.0" x="84.0" style="fill:#34d231">███</text>
<text y="89.0" x="102.0" style="fill:#34d231">█</text>
<text y="89.0" x="108.0" style="fill:#34d231">███</text>
<text y="100.5" x="0.0" style="fill:#268dca">███</text>
<text y="100.5" x="18.0" style="fill:#cdcdcd">██</text>
<text y="100.5" x="30.0" style="fill:#cdcdcd">███</text>
<text y="100.5" x="48.0" style="fill:#34d231">██</text>
<text y="100.5" x="60.0" style="fill:#34d231">███</text>
<text y="100.5" x="78.0" style="fill:#34d231">█</text>
<text y="100.5" x="84.0" style="fill:#34d231">███</text>
<text y="100.5" x="102.0" style="fill:#34d231">█</text>
<text y="100.5" x="108.0" style="fill:#34d231">███</text>
<text y="112.0" x="0.0" style="fill:#268dca">███</text>
<text y="112.0" x="18.0" style="fill:#cdcdcd">███</text>
<text y="112.0" x="36.0" style="fill:#cdcdcd">██</text>
<text y="112.0" x="48.0" style="fill:#34d231">█</text>
<text y="112.0" x="54.0" style="fill:#34d231">█</text>
<text y="112.0" x="60.0" style="fill:#34d231">███</text>
<text y="112.0" x="78.0" style="fill:#34d231">█</text>
<text y="112.0" x="84.0" style="fill:#34d231">███</text>
<text y="112.0" x="102.0" style="fill:#34d231">█</text>
<text y="112.0" x="108.0" style="fill:#34d231">███</text>
<text y="123.5" x="0.0" style="fill:#268dca">███</text>
<text y="123.5" x="18.0" style="fill:#cdcdcd">██</text>
<text y="123.5" x="30.0" style="fill:#cdcdcd">███</text>
<text y="123.5" x="48.0" style="fill:#34d231">█</text>
<text y="123.5" x="54.0" style="fill:#34d231">█████████</text>
<text y="123.5" x="108.0" style="fill:#34d231">███</text>
<text y="8.5" x="0.0" style="fill:#cdcdcd">≈</text>
<text y="8.5" x="6.0" style="fill:#cdcdcd">░</text>
<text y="8.5" x="12.0" style="fill:#1b8b1b">`</text>
<text y="8.5" x="18.0" style="fill:#1a1818"> Port Kalau </text>
<text y="8.5" x="90.0" style="fill:#1b8b1b">φφ`φ``</text>
<text y="20.0" x="0.0" style="fill:#cdcdcd">≈</text>
<text y="20.0" x="6.0" style="fill:#cdcdcd">░</text>
<text y="20.0" x="12.0" style="fill:#232323">██</text>
<text y="20.0" x="24.0" style="fill:#1b8b1b">`</text>
<text y="20.0" x="30.0" style="fill:#232323">▪▪▪▪█▪</text>
<text y="20.0" x="66.0" style="fill:#232323">▪</text>
<text y="20.0" x="72.0" style="fill:#1b8b1b">```φφ````</text>
<text y="31.5" x="0.0" style="fill:#cdcdcd">≈</text>
<text y="31.5" x="6.0" style="fill:#cdcdcd">░</text>
<text y="31.5" x="12.0" style="fill:#232323">│</text>
<text y="31.5" x="18.0" style="fill:#232323">▪</text>
<text y="31.5" x="24.0" style="fill:#1b8b1b">`</text>
<text y="31.5" x="30.0" style="fill:#232323">┌─────┐</text>
<text y="31.5" x="72.0" style="fill:#232323">▪▪</text>
<text y="31.5" x="84.0" style="fill:#1b8b1b">φ`φ````</text>
<text y="43.0" x="0.0" style="fill:#cdcdcd">≈</text>
<text y="43.0" x="6.0" style="fill:#cdcdcd">░</text>
<text y="43.0" x="12.0" style="fill:#232323">├──┘</text>
<text y="43.0" x="36.0" style="fill:#232323">▪</text>
<text y="43.0" x="42.0" style="fill:#1b8b1b">`</text>
<text y="43.0" x="48.0" style="fill:#232323">▪</text>
<text y="43.0" x="54.0" style="fill:#1b8b1b">`</text>
<text y="43.0" x="60.0" style="fill:#232323">▪</text>
<text y="43.0" x="66.0" style="fill:#232323">├──</text>
<text y="43.0" x="84.0" style="fill:#301602">───────</text>
<text y="54.5" x="0.0" style="fill:#cdcdcd">≈</text>
<text y="54.5" x="6.0" style="fill:#cdcdcd">░</text>
<text y="54.5" x="12.0" style="fill:#232323">│</text>
<text y="54.5" x="18.0" style="fill:#232323">▪</text>
<text y="54.5" x="24.0" style="fill:#1b8b1b">Γ</text>
<text y="54.5" x="30.0" style="fill:#1b8b1b">`</text>
<text y="54.5" x="36.0" style="fill:#cdcdcd">≈≈≈≈≈</text>
<text y="54.5" x="66.0" style="fill:#232323">║</text>
<text y="54.5" x="72.0" style="fill:#cdcdcd">≈</text>
<text y="54.5" x="78.0" style="fill:#232323">▪</text>
<text y="54.5" x="84.0" style="fill:#1b8b1b">``</text>
<text y="54.5" x="96.0" style="fill:#cdcdcd">≈≈≈≈≈</text>
<text y="66.0" x="0.0" style="fill:#cdcdcd">≈</text>
<text y="66.0" x="6.0" style="fill:#e90707">◘</text>
<text y="66.0" x="12.0" style="fill:#232323">│</text>
<text y="66.0" x="18.0" style="fill:#1b8b1b">Γ</text>
<text y="66.0" x="24.0" style="fill:#232323">▪</text>
<text y="66.0" x="30.0" style="fill:#232323">▪</text>
<text y="66.0" x="36.0" style="fill:#cdcdcd">≈</text>
<text y="66.0" x="42.0" style="fill:#1b8b1b">`</text>
<text y="66.0" x="48.0" style="fill:#232323">▪</text>
<text y="66.0" x="54.0" style="fill:#1b8b1b">`</text>
<text y="66.0" x="60.0" style="fill:#232323">▪</text>
<text y="66.0" x="66.0" style="fill:#232323">│</text>
<text y="66.0" x="72.0" style="fill:#cdcdcd">≈≈≈≈≈</text>
<text y="66.0" x="102.0" style="fill:#1b8b1b">````</text>
<text y="77.5" x="0.0" style="fill:#cdcdcd">≈</text>
<text y="77.5" x="6.0" style="fill:#1b8b1b">`</text>
<text y="77.5" x="12.0" style="fill:#232323">▪</text>
<text y="77.5" x="18.0" style="fill:#1b8b1b">```</text>
<text y="77.5" x="36.0" style="fill:#cdcdcd">≈</text>
<text y="77.5" x="42.0" style="fill:#232323">┌───┴</text>
<text y="77.5" x="72.0" style="fill:#301602">─</text>
<text y="77.5" x="78.0" style="fill:#301602">┬─</text>
<text y="77.5" x="90.0" style="fill:#301602">──┐</text>
<text y="77.5" x="108.0" style="fill:#1b8b1b">```</text>
<text y="89.0" x="0.0" style="fill:#cdcdcd">≈≈≈≈≈≈≈</text>
<text y="89.0" x="42.0" style="fill:#232323">│</text>
<text y="89.0" x="48.0" style="fill:#232323">▪</text>
<text y="89.0" x="54.0" style="fill:#1b8b1b">φ</text>
<text y="89.0" x="60.0" style="fill:#eab91c">███</text>
<text y="89.0" x="78.0" style="fill:#301602">│</text>
<text y="89.0" x="84.0" style="fill:#eab91c">███</text>
<text y="89.0" x="102.0" style="fill:#301602">│</text>
<text y="89.0" x="108.0" style="fill:#1b8b1b">```</text>
<text y="100.5" x="0.0" style="fill:#cdcdcd">≈≈≈</text>
<text y="100.5" x="18.0" style="fill:#1a1818">  </text>
<text y="100.5" x="30.0" style="fill:#232323">██┤</text>
<text y="100.5" x="48.0" style="fill:#301602">└┐</text>
<text y="100.5" x="60.0" style="fill:#eab91c">███</text>
<text y="100.5" x="78.0" style="fill:#301602">│</text>
<text y="100.5" x="84.0" style="fill:#eab91c">███</text>
<text y="100.5" x="102.0" style="fill:#301602">│</text>
<text y="100.5" x="108.0" style="fill:#1b8b1b">```</text>
<text y="112.0" x="0.0" style="fill:#cdcdcd">≈≈≈</text>
<text y="112.0" x="18.0" style="fill:#1a1818">   </text>
<text y="112.0" x="36.0" style="fill:#232323">─┤</text>
<text y="112.0" x="48.0" style="fill:#1b8b1b">`</text>
<text y="112.0" x="54.0" style="fill:#301602">│</text>
<text y="112.0" x="60.0" style="fill:#eab91c">███</text>
<text y="112.0" x="78.0" style="fill:#301602">│</text>
<text y="112.0" x="84.0" style="fill:#eab91c">███</text>
<text y="112.0" x="102.0" style="fill:#301602">│</text>
<text y="112.0" x="108.0" style="fill:#1b8b1b">```</text>
<text y="123.5" x="0.0" style="fill:#cdcdcd">≈≈≈</text>
<text y="123.5" x="18.0" style="fill:#1a1818">  </text>
<text y="123.5" x="30.0" style="fill:#232323">██┘</text>
<text y="123.5" x="48.0" style="fill:#1b8b1b">`</text>
<text y="123.5" x="54.0" style="fill:#301602">└───┴───┘</text>
<text y="123.5" x="108.0" style="fill:#1b8b1b">```</text>
</svg>
