<?xml version="1.0" encoding="UTF-8" standalone="no"?>
    <svg xmlns="http://www.w3.org/2000/svg" version="1.1" width="216.0px" height="230.0px" viewBox="0 0 216.0 230.0" style="letter-spacing:0em;font-size:10px;font-family:&apos;DejaVu Sans Mono&apos;;stroke:none">
    <text y="8.5" x="0.0" style="fill:#34d231">███████████████████████████████████</text>
█<text y="20.0" x="0.0" style="fill:#268dca">█</text>
<text y="20.0" x="6.0" style="fill:#34d231">██████████████████████████████████</text>
█<text y="31.5" x="0.0" style="fill:#34d231">███████████████████████████████████</text>
█<text y="43.0" x="0.0" style="fill:#34d231">███████</text>
<text y="43.0" x="42.0" style="fill:#268dca">█████████████</text>
<text y="43.0" x="120.0" style="fill:#34d231">███████████████</text>
█<text y="54.5" x="0.0" style="fill:#34d231">██████</text>
<text y="54.5" x="36.0" style="fill:#268dca">██</text>
<text y="54.5" x="48.0" style="fill:#eab91c">█</text>
<text y="54.5" x="54.0" style="fill:#eab91c">█</text>
<text y="54.5" x="60.0" style="fill:#eab91c">█</text>
<text y="54.5" x="66.0" style="fill:#34d231">█████████</text>
<text y="54.5" x="120.0" style="fill:#268dca">█</text>
<text y="54.5" x="126.0" style="fill:#34d231">█████████████</text>
<text y="54.5" x="204.0" style="fill:#34d231">█</text>
</text>
<text y="54.5" x="210.0" style="fill:#34d231">█<text y="66.0" x="0.0" style="fill:#34d231">█████</text>
<text y="66.0" x="30.0" style="fill:#268dca">██</text>
<text y="66.0" x="42.0" style="fill:#34d231">██</text>
<text y="66.0" x="54.0" style="fill:#34d231">█</text>
<text y="66.0" x="60.0" style="fill:#34d231">█</text>
<text y="66.0" x="66.0" style="fill:#eab91c">███████████████</text>
<text y="66.0" x="156.0" style="fill:#34d231">█████████</text>
█<text y="77.5" x="0.0" style="fill:#34d231">█████</text>
<text y="77.5" x="30.0" style="fill:#268dca">█</text>
<text y="77.5" x="36.0" style="fill:#34d231">███</text>
<text y="77.5" x="54.0" style="fill:#34d231">█</text>
<text y="77.5" x="60.0" style="fill:#34d231">██</text>
<text y="77.5" x="72.0" style="fill:#34d231">█</text>
<text y="77.5" x="78.0" style="fill:#34d231">██</text>
<text y="77.5" x="90.0" style="fill:#34d231">█</text>
<text y="77.5" x="96.0" style="fill:#34d231">█</text>
<text y="77.5" x="102.0" style="fill:#34d231">█</text>
<text y="77.5" x="108.0" style="fill:#34d231">█</text>
<text y="77.5" x="114.0" style="fill:#34d231">█</text>
<text y="77.5" x="120.0" style="fill:#34d231">█</text>
<text y="77.5" x="126.0" style="fill:#34d231">█</text>
<text y="77.5" x="132.0" style="fill:#268dca">█</text>
<text y="77.5" x="138.0" style="fill:#34d231">████████████</text>
█<text y="89.0" x="0.0" style="fill:#34d231">███</text>
<text y="89.0" x="18.0" style="fill:#34d231">█</text>
<text y="89.0" x="24.0" style="fill:#268dca">██</text>
<text y="89.0" x="36.0" style="fill:#34d231">███</text>
<text y="89.0" x="54.0" style="fill:#34d231">███████</text>
<text y="89.0" x="96.0" style="fill:#cdcdcd">█</text>
<text y="89.0" x="102.0" style="fill:#34d231">█</text>
<text y="89.0" x="108.0" style="fill:#cdcdcd">█</text>
<text y="89.0" x="114.0" style="fill:#34d231">█</text>
<text y="89.0" x="120.0" style="fill:#cdcdcd">█</text>
<text y="89.0" x="126.0" style="fill:#eab91c">█</text>
<text y="89.0" x="132.0" style="fill:#268dca">█</text>
<text y="89.0" x="138.0" style="fill:#34d231">████████████</text>
█<text y="100.5" x="0.0" style="fill:#34d231">████</text>
<text y="100.5" x="24.0" style="fill:#268dca">█</text>
<text y="100.5" x="30.0" style="fill:#34d231">█████</text>
<text y="100.5" x="60.0" style="fill:#34d231">█</text>
<text y="100.5" x="66.0" style="fill:#34d231">█</text>
<text y="100.5" x="72.0" style="fill:#34d231">██</text>
<text y="100.5" x="84.0" style="fill:#34d231">█</text>
<text y="100.5" x="90.0" style="fill:#34d231">█</text>
<text y="100.5" x="96.0" style="fill:#34d231">█</text>
<text y="100.5" x="102.0" style="fill:#cdcdcd">██</text>
<text y="100.5" x="114.0" style="fill:#34d231">█</text>
<text y="100.5" x="120.0" style="fill:#34d231">█</text>
<text y="100.5" x="126.0" style="fill:#34d231">█</text>
<text y="100.5" x="132.0" style="fill:#268dca">██</text>
<text y="100.5" x="144.0" style="fill:#34d231">████</text>
<text y="100.5" x="168.0" style="fill:#268dca">████</text>
<text y="100.5" x="192.0" style="fill:#34d231">███</text>
█<text y="112.0" x="0.0" style="fill:#34d231">███</text>
<text y="112.0" x="18.0" style="fill:#eab91c">█</text>
<text y="112.0" x="24.0" style="fill:#268dca">█</text>
<text y="112.0" x="30.0" style="fill:#34d231">█████</text>
<text y="112.0" x="60.0" style="fill:#34d231">█</text>
<text y="112.0" x="66.0" style="fill:#34d231">███</text>
<text y="112.0" x="84.0" style="fill:#34d231">█</text>
<text y="112.0" x="90.0" style="fill:#cdcdcd">█</text>
<text y="112.0" x="96.0" style="fill:#34d231">████</text>
<text y="112.0" x="120.0" style="fill:#34d231">█</text>
<text y="112.0" x="126.0" style="fill:#34d231">█</text>
<text y="112.0" x="132.0" style="fill:#34d231">██</text>
<text y="112.0" x="144.0" style="fill:#268dca">████████</text>
<text y="112.0" x="192.0" style="fill:#34d231">███</text>
█<text y="123.5" x="0.0" style="fill:#34d231">██</text>
<text y="123.5" x="12.0" style="fill:#eab91c">█</text>
<text y="123.5" x="18.0" style="fill:#268dca">██</text>
<text y="123.5" x="30.0" style="fill:#34d231">█████</text>
<text y="123.5" x="60.0" style="fill:#34d231">█</text>
<text y="123.5" x="66.0" style="fill:#cdcdcd">█</text>
<text y="123.5" x="72.0" style="fill:#34d231">██</text>
<text y="123.5" x="84.0" style="fill:#34d231">█</text>
<text y="123.5" x="90.0" style="fill:#cdcdcd">█</text>
<text y="123.5" x="96.0" style="fill:#34d231">█</text>
<text y="123.5" x="102.0" style="fill:#34d231">███</text>
<text y="123.5" x="120.0" style="fill:#34d231">█</text>
<text y="123.5" x="126.0" style="fill:#34d231">█</text>
<text y="123.5" x="132.0" style="fill:#34d231">███████</text>
<text y="123.5" x="174.0" style="fill:#268dca">█</text>
<text y="123.5" x="180.0" style="fill:#34d231">█</text>
<text y="123.5" x="186.0" style="fill:#268dca">█</text>
<text y="123.5" x="192.0" style="fill:#34d231">██</text>
<text y="123.5" x="204.0" style="fill:#268dca">█</text>
</text>
<text y="123.5" x="210.0" style="fill:#34d231">█<text y="135.0" x="0.0" style="fill:#34d231">██</text>
<text y="135.0" x="12.0" style="fill:#268dca">███</text>
<text y="135.0" x="30.0" style="fill:#34d231">███</text>
<text y="135.0" x="48.0" style="fill:#34d231">██</text>
<text y="135.0" x="60.0" style="fill:#34d231">█</text>
<text y="135.0" x="66.0" style="fill:#34d231">███</text>
<text y="135.0" x="84.0" style="fill:#34d231">█</text>
<text y="135.0" x="90.0" style="fill:#cdcdcd">█</text>
<text y="135.0" x="96.0" style="fill:#34d231">███</text>
<text y="135.0" x="114.0" style="fill:#34d231">█</text>
<text y="135.0" x="120.0" style="fill:#34d231">█</text>
<text y="135.0" x="126.0" style="fill:#34d231">█████████</text>
<text y="135.0" x="180.0" style="fill:#268dca">█████</text>
</text>
<text y="135.0" x="210.0" style="fill:#34d231">█<text y="146.5" x="0.0" style="fill:#268dca">███</text>
<text y="146.5" x="18.0" style="fill:#34d231">█</text>
<text y="146.5" x="24.0" style="fill:#268dca">█</text>
<text y="146.5" x="30.0" style="fill:#34d231">██</text>
<text y="146.5" x="42.0" style="fill:#34d231">█</text>
<text y="146.5" x="48.0" style="fill:#34d231">██</text>
<text y="146.5" x="60.0" style="fill:#34d231">██████</text>
<text y="146.5" x="96.0" style="fill:#34d231">█</text>
<text y="146.5" x="102.0" style="fill:#34d231">███</text>
<text y="146.5" x="120.0" style="fill:#34d231">█</text>
<text y="146.5" x="126.0" style="fill:#34d231">███</text>
<text y="146.5" x="144.0" style="fill:#34d231">████████</text>
<text y="146.5" x="192.0" style="fill:#268dca">███</text>
</text>
<text y="146.5" x="210.0" style="fill:#34d231">█<text y="158.0" x="0.0" style="fill:#cdcdcd">███</text>
<text y="158.0" x="18.0" style="fill:#eab91c">█</text>
<text y="158.0" x="24.0" style="fill:#268dca">█</text>
<text y="158.0" x="30.0" style="fill:#34d231">███</text>
<text y="158.0" x="48.0" style="fill:#34d231">██</text>
<text y="158.0" x="60.0" style="fill:#34d231">██</text>
<text y="158.0" x="72.0" style="fill:#34d231">████</text>
<text y="158.0" x="96.0" style="fill:#34d231">█</text>
<text y="158.0" x="102.0" style="fill:#34d231">███</text>
<text y="158.0" x="120.0" style="fill:#34d231">█</text>
<text y="158.0" x="126.0" style="fill:#34d231">███</text>
<text y="158.0" x="144.0" style="fill:#34d231">████████</text>
<text y="158.0" x="192.0" style="fill:#268dca">███</text>
</text>
<text y="158.0" x="210.0" style="fill:#34d231">█<text y="169.5" x="0.0" style="fill:#cdcdcd">███</text>
<text y="169.5" x="18.0" style="fill:#eab91c">█</text>
<text y="169.5" x="24.0" style="fill:#268dca">█</text>
<text y="169.5" x="30.0" style="fill:#34d231">███████</text>
<text y="169.5" x="72.0" style="fill:#34d231">████</text>
<text y="169.5" x="96.0" style="fill:#34d231">█</text>
<text y="169.5" x="102.0" style="fill:#34d231">███</text>
<text y="169.5" x="120.0" style="fill:#34d231">█</text>
<text y="169.5" x="126.0" style="fill:#34d231">███</text>
<text y="169.5" x="144.0" style="fill:#34d231">████████</text>
<text y="169.5" x="192.0" style="fill:#268dca">███</text>
█<text y="181.0" x="0.0" style="fill:#cdcdcd">███</text>
<text y="181.0" x="18.0" style="fill:#268dca">██</text>
<text y="181.0" x="30.0" style="fill:#34d231">███████</text>
<text y="181.0" x="72.0" style="fill:#34d231">████</text>
<text y="181.0" x="96.0" style="fill:#34d231">█</text>
<text y="181.0" x="102.0" style="fill:#34d231">███</text>
<text y="181.0" x="120.0" style="fill:#34d231">█</text>
<text y="181.0" x="126.0" style="fill:#34d231">███</text>
<text y="181.0" x="144.0" style="fill:#34d231">██████████</text>
<text y="181.0" x="204.0" style="fill:#268dca">█</text>
█<text y="192.5" x="0.0" style="fill:#cdcdcd">█</text>
<text y="192.5" x="6.0" style="fill:#268dca">███</text>
<text y="192.5" x="24.0" style="fill:#34d231">█████████</text>
<text y="192.5" x="78.0" style="fill:#34d231">███</text>
<text y="192.5" x="96.0" style="fill:#34d231">███████████████████</text>
</text>
<text y="192.5" x="210.0" style="fill:#268dca">█<text y="204.0" x="0.0" style="fill:#268dca">██</text>
<text y="204.0" x="12.0" style="fill:#cdcdcd">██</text>
<text y="204.0" x="24.0" style="fill:#34d231">██████████</text>
<text y="204.0" x="84.0" style="fill:#34d231">██</text>
<text y="204.0" x="96.0" style="fill:#34d231">██████████████</text>
<text y="204.0" x="180.0" style="fill:#783908">███</text>
<text y="204.0" x="198.0" style="fill:#34d231">██</text>
</text>
<text y="204.0" x="210.0" style="fill:#268dca">█<text y="215.5" x="0.0" style="fill:#eab91c">█</text>
<text y="215.5" x="6.0" style="fill:#cdcdcd">███</text>
<text y="215.5" x="24.0" style="fill:#34d231">███████████</text>
<text y="215.5" x="90.0" style="fill:#34d231">█</text>
<text y="215.5" x="96.0" style="fill:#34d231">███████████</text>
<text y="215.5" x="162.0" style="fill:#783908">██</text>
<text y="215.5" x="174.0" style="fill:#34d231">███</text>
<text y="215.5" x="192.0" style="fill:#783908">█</text>
<text y="215.5" x="198.0" style="fill:#34d231">█</text>
<text y="215.5" x="204.0" style="fill:#34d231">█</text>
█<text y="227.0" x="0.0" style="fill:#cdcdcd">████</text>
<text y="227.0" x="24.0" style="fill:#34d231">███████████████████████</text>
<text y="227.0" x="162.0" style="fill:#783908">██</text>
<text y="227.0" x="174.0" style="fill:#34d231">██████</text>
█<text y="8.5" x="0.0" style="fill:#1b8b1b">⌄⌄⌄⌄⌄⌄⌄⌄⌄⌄⌄⌄⌄⌄⌄⌄⌄⌄●⌄●⌄⌄⌄⌄⌄⌄⌄⌄⌄⌄⌄⌄⌄⌄</text>
⌄<text y="20.0" x="0.0" style="fill:#ffffff">~</text>
<text y="20.0" x="6.0" style="fill:#1b8b1b">⌄⌄⌄⌄⌄⌄⌄⌄⌄⌄⌄⌄⌄●⌄●●⌄⌄⌄●⌄⌄●⌄●⌄⌄⌄⌄⌄⌄⌄⌄</text>
⌄<text y="31.5" x="0.0" style="fill:#1b8b1b">⌄⌄⌄⌄⌄⌄⌄●●⌄●⌄●●⌄⌄⌄⌄⌄⌄⌄⌄⌄⌄⌄⌄⌄●⌄●⌄⌄⌄⌄⌄</text>
⌄<text y="43.0" x="0.0" style="fill:#1b8b1b">⌄⌄⌄⌄⌄⌄⌄</text>
<text y="43.0" x="42.0" style="fill:#ffffff">~~~~~~~~~~~~~</text>
<text y="43.0" x="120.0" style="fill:#1b8b1b">⌄⌄⌄⌄⌄⌄⌄⌄⌄⌄⌄⌄⌄●▊</text>
⌄<text y="54.5" x="0.0" style="fill:#1b8b1b">⌄⌄⌄⌄⌄⌄</text>
<text y="54.5" x="36.0" style="fill:#ffffff">~~</text>
<text y="54.5" x="48.0" style="fill:#000000">■</text>
<text y="54.5" x="54.0" style="fill:#783908">│</text>
<text y="54.5" x="60.0" style="fill:#000000">■</text>
<text y="54.5" x="66.0" style="fill:#1b8b1b">⌄⌄⌄⌄⌄⌄⌄⌄⌄</text>
<text y="54.5" x="120.0" style="fill:#ffffff">~</text>
<text y="54.5" x="126.0" style="fill:#1b8b1b">⌄⌄⌄⌄⌄⌄⌄⌄⌄⌄●⌄⌄</text>
<text y="54.5" x="204.0" style="fill:#000000">╵</text>
</text>
<text y="54.5" x="210.0" style="fill:#1b8b1b">●<text y="66.0" x="0.0" style="fill:#1b8b1b">⌄⌄⌄⌄●</text>
<text y="66.0" x="30.0" style="fill:#ffffff">~~</text>
<text y="66.0" x="42.0" style="fill:#1b8b1b">⌄⌄</text>
<text y="66.0" x="54.0" style="fill:#783908">│</text>
<text y="66.0" x="60.0" style="fill:#1b8b1b">⌄</text>
<text y="66.0" x="66.0" style="fill:#000000"> Swallow's End </text>
<text y="66.0" x="156.0" style="fill:#1b8b1b">⌄⌄⌄⌄⌄⌄⌄⌄⌄</text>
⌄<text y="77.5" x="0.0" style="fill:#1b8b1b">⌄⌄⌄▆⌄</text>
<text y="77.5" x="30.0" style="fill:#ffffff">~</text>
<text y="77.5" x="36.0" style="fill:#1b8b1b">⌄⌄⌄</text>
<text y="77.5" x="54.0" style="fill:#783908">│</text>
<text y="77.5" x="60.0" style="fill:#1b8b1b">⌄⌄</text>
<text y="77.5" x="72.0" style="fill:#000000">■</text>
<text y="77.5" x="78.0" style="fill:#1b8b1b">⌄⌄</text>
<text y="77.5" x="90.0" style="fill:#000000">■</text>
<text y="77.5" x="96.0" style="fill:#1b8b1b">⌄</text>
<text y="77.5" x="102.0" style="fill:#000000">■</text>
<text y="77.5" x="108.0" style="fill:#1b8b1b">⌄</text>
<text y="77.5" x="114.0" style="fill:#000000">■</text>
<text y="77.5" x="120.0" style="fill:#1b8b1b">⌄</text>
<text y="77.5" x="126.0" style="fill:#000000">■</text>
<text y="77.5" x="132.0" style="fill:#ffffff">~</text>
<text y="77.5" x="138.0" style="fill:#1b8b1b">⌄⌄⌄⌄⌄⌄⌄⌄⌄⌄⌄⌄</text>
⌄<text y="89.0" x="0.0" style="fill:#1b8b1b">⌄⌄⌄</text>
<text y="89.0" x="18.0" style="fill:#000000">╹</text>
<text y="89.0" x="24.0" style="fill:#ffffff">~~</text>
<text y="89.0" x="36.0" style="fill:#1b8b1b">⌄⌄⌄</text>
<text y="89.0" x="54.0" style="fill:#783908">└┬────┬</text>
<text y="89.0" x="96.0" style="fill:#783908">─</text>
<text y="89.0" x="102.0" style="fill:#783908">─</text>
<text y="89.0" x="108.0" style="fill:#783908">─</text>
<text y="89.0" x="114.0" style="fill:#783908">─</text>
<text y="89.0" x="120.0" style="fill:#783908">┐</text>
<text y="89.0" x="126.0" style="fill:#000000">■</text>
<text y="89.0" x="132.0" style="fill:#ffffff">~</text>
<text y="89.0" x="138.0" style="fill:#1b8b1b">⌄⌄⌄⌄⌄⌄⌄⌄⌄⌄⌄⌄</text>
⌄<text y="100.5" x="0.0" style="fill:#1b8b1b">⌄⌄⌄▆</text>
<text y="100.5" x="24.0" style="fill:#ffffff">~</text>
<text y="100.5" x="30.0" style="fill:#1b8b1b">⌄⌄⌄⌄⌄</text>
<text y="100.5" x="60.0" style="fill:#783908">│</text>
<text y="100.5" x="66.0" style="fill:#1b8b1b">⌄</text>
<text y="100.5" x="72.0" style="fill:#000000">■■</text>
<text y="100.5" x="84.0" style="fill:#1b8b1b">⌄</text>
<text y="100.5" x="90.0" style="fill:#783908">│</text>
<text y="100.5" x="96.0" style="fill:#1b8b1b">⌄</text>
<text y="100.5" x="102.0" style="fill:#000000">██</text>
<text y="100.5" x="114.0" style="fill:#1b8b1b">⌄</text>
<text y="100.5" x="120.0" style="fill:#783908">│</text>
<text y="100.5" x="126.0" style="fill:#1b8b1b">●</text>
<text y="100.5" x="132.0" style="fill:#ffffff">~~</text>
<text y="100.5" x="144.0" style="fill:#1b8b1b">⌄⌄⌄⌄</text>
<text y="100.5" x="168.0" style="fill:#ffffff">~~~~</text>
<text y="100.5" x="192.0" style="fill:#1b8b1b">⌄⌄⌄</text>
⌄<text y="112.0" x="0.0" style="fill:#1b8b1b">⌄⌄▆</text>
<text y="112.0" x="18.0" style="fill:#000000">╹</text>
<text y="112.0" x="24.0" style="fill:#ffffff">~</text>
<text y="112.0" x="30.0" style="fill:#1b8b1b">⌄⌄⌄⌄⌄</text>
<text y="112.0" x="60.0" style="fill:#783908">│</text>
<text y="112.0" x="66.0" style="fill:#1b8b1b">⌄⌄⌄</text>
<text y="112.0" x="84.0" style="fill:#000000">■</text>
<text y="112.0" x="90.0" style="fill:#783908">│</text>
<text y="112.0" x="96.0" style="fill:#1b8b1b">●⌄⌄⌄</text>
<text y="112.0" x="120.0" style="fill:#783908">│</text>
<text y="112.0" x="126.0" style="fill:#000000">■</text>
<text y="112.0" x="132.0" style="fill:#1b8b1b">⌄⌄</text>
<text y="112.0" x="144.0" style="fill:#ffffff">~~~~~~~~</text>
<text y="112.0" x="192.0" style="fill:#1b8b1b">⌄⌄⌄</text>
⌄<text y="123.5" x="0.0" style="fill:#1b8b1b">●⌄</text>
<text y="123.5" x="12.0" style="fill:#000000">╹</text>
<text y="123.5" x="18.0" style="fill:#ffffff">~~</text>
<text y="123.5" x="30.0" style="fill:#1b8b1b">⌄⌄⌄⌄⌄</text>
<text y="123.5" x="60.0" style="fill:#783908">│</text>
<text y="123.5" x="66.0" style="fill:#000000">█</text>
<text y="123.5" x="72.0" style="fill:#1b8b1b">⌄⌄</text>
<text y="123.5" x="84.0" style="fill:#000000">■</text>
<text y="123.5" x="90.0" style="fill:#783908">│</text>
<text y="123.5" x="96.0" style="fill:#000000">■</text>
<text y="123.5" x="102.0" style="fill:#1b8b1b">⌄⌄⌄</text>
<text y="123.5" x="120.0" style="fill:#783908">│</text>
<text y="123.5" x="126.0" style="fill:#000000">■</text>
<text y="123.5" x="132.0" style="fill:#1b8b1b">⌄⌄⌄⌄⌄⌄⌄</text>
<text y="123.5" x="174.0" style="fill:#ffffff">~</text>
<text y="123.5" x="180.0" style="fill:#1b8b1b">⌄</text>
<text y="123.5" x="186.0" style="fill:#ffffff">~</text>
<text y="123.5" x="192.0" style="fill:#1b8b1b">⌄⌄</text>
<text y="123.5" x="204.0" style="fill:#ffffff">~</text>
</text>
<text y="123.5" x="210.0" style="fill:#1b8b1b">⌄<text y="135.0" x="0.0" style="fill:#1b8b1b">⌄⌄</text>
<text y="135.0" x="12.0" style="fill:#ffffff">~~~</text>
<text y="135.0" x="30.0" style="fill:#1b8b1b">⌄⌄▆</text>
<text y="135.0" x="48.0" style="fill:#1a1818">⌂⌂</text>
<text y="135.0" x="60.0" style="fill:#783908">│</text>
<text y="135.0" x="66.0" style="fill:#1b8b1b">⌄⌄●</text>
<text y="135.0" x="84.0" style="fill:#000000">■</text>
<text y="135.0" x="90.0" style="fill:#783908">│</text>
<text y="135.0" x="96.0" style="fill:#1b8b1b">⌄⌄⌄</text>
<text y="135.0" x="114.0" style="fill:#000000">■</text>
<text y="135.0" x="120.0" style="fill:#783908">│</text>
<text y="135.0" x="126.0" style="fill:#1b8b1b">⌄⌄⌄⌄⌄⌄⌄⌄⌄</text>
<text y="135.0" x="180.0" style="fill:#ffffff">~~~~~</text>
</text>
<text y="135.0" x="210.0" style="fill:#1b8b1b">⌄<text y="146.5" x="0.0" style="fill:#ffffff">~~~</text>
<text y="146.5" x="18.0" style="fill:#1b8b1b">⌄</text>
<text y="146.5" x="24.0" style="fill:#ffffff">~</text>
<text y="146.5" x="30.0" style="fill:#1b8b1b">⌄⌄</text>
<text y="146.5" x="42.0" style="fill:#000000">╹</text>
<text y="146.5" x="48.0" style="fill:#1a1818">⌂⌂</text>
<text y="146.5" x="60.0" style="fill:#783908">└────┘</text>
<text y="146.5" x="96.0" style="fill:#1b8b1b">⌄</text>
<text y="146.5" x="102.0" style="fill:#eab91c">███</text>
<text y="146.5" x="120.0" style="fill:#1b8b1b">⌄</text>
<text y="146.5" x="126.0" style="fill:#eab91c">███</text>
<text y="146.5" x="144.0" style="fill:#1b8b1b">⌄⌄⌄⌄⌄⌄⌄⌄</text>
<text y="146.5" x="192.0" style="fill:#ffffff">~~~</text>
</text>
<text y="146.5" x="210.0" style="fill:#1b8b1b">⌄<text y="158.0" x="0.0" style="fill:#1a1818">▲▲▲</text>
<text y="158.0" x="18.0" style="fill:#1a1818">▲</text>
<text y="158.0" x="24.0" style="fill:#ffffff">~</text>
<text y="158.0" x="30.0" style="fill:#1b8b1b">⌄⌄⌄</text>
<text y="158.0" x="48.0" style="fill:#1a1818">⌂⌂</text>
<text y="158.0" x="60.0" style="fill:#1b8b1b">●⌄</text>
<text y="158.0" x="72.0" style="fill:#eab91c">████</text>
<text y="158.0" x="96.0" style="fill:#1b8b1b">⌄</text>
<text y="158.0" x="102.0" style="fill:#eab91c">███</text>
<text y="158.0" x="120.0" style="fill:#1b8b1b">⌄</text>
<text y="158.0" x="126.0" style="fill:#eab91c">███</text>
<text y="158.0" x="144.0" style="fill:#1b8b1b">⌄⌄⌄⌄⌄⌄⌄⌄</text>
<text y="158.0" x="192.0" style="fill:#ffffff">~~~</text>
</text>
<text y="158.0" x="210.0" style="fill:#1b8b1b">⌄<text y="169.5" x="0.0" style="fill:#1a1818">▲▲▲</text>
<text y="169.5" x="18.0" style="fill:#1a1818">▲</text>
<text y="169.5" x="24.0" style="fill:#ffffff">~</text>
<text y="169.5" x="30.0" style="fill:#1b8b1b">⌄⌄⌄⌄⌄⌄⌄</text>
<text y="169.5" x="72.0" style="fill:#eab91c">████</text>
<text y="169.5" x="96.0" style="fill:#1b8b1b">⌄</text>
<text y="169.5" x="102.0" style="fill:#eab91c">███</text>
<text y="169.5" x="120.0" style="fill:#1b8b1b">⌄</text>
<text y="169.5" x="126.0" style="fill:#eab91c">███</text>
<text y="169.5" x="144.0" style="fill:#1b8b1b">⌄⌄⌄⌄⌄⌄⌄⌄</text>
<text y="169.5" x="192.0" style="fill:#ffffff">~~~</text>
~<text y="181.0" x="0.0" style="fill:#1a1818">▲▲▲</text>
<text y="181.0" x="18.0" style="fill:#ffffff">~~</text>
<text y="181.0" x="30.0" style="fill:#1b8b1b">⌄⌄⌄⌄⌄⌄⌄</text>
<text y="181.0" x="72.0" style="fill:#eab91c">████</text>
<text y="181.0" x="96.0" style="fill:#1b8b1b">⌄</text>
<text y="181.0" x="102.0" style="fill:#eab91c">███</text>
<text y="181.0" x="120.0" style="fill:#1b8b1b">⌄</text>
<text y="181.0" x="126.0" style="fill:#eab91c">███</text>
<text y="181.0" x="144.0" style="fill:#1b8b1b">⌄⌄⌄⌄⌄⌄⌄⌄⌄⌄</text>
<text y="181.0" x="204.0" style="fill:#ffffff">~</text>
~<text y="192.5" x="0.0" style="fill:#1a1818">▲</text>
<text y="192.5" x="6.0" style="fill:#ffffff">~~~</text>
<text y="192.5" x="24.0" style="fill:#1b8b1b">⌄⌄⌄⌄⌄⌄⌄⌄⌄</text>
<text y="192.5" x="78.0" style="fill:#eab91c">███</text>
<text y="192.5" x="96.0" style="fill:#1b8b1b">⌄⌄⌄⌄⌄⌄⌄⌄⌄⌄⌄⌄⌄⌄▆▊▅⌄⌄</text>
</text>
<text y="192.5" x="210.0" style="fill:#ffffff">~<text y="204.0" x="0.0" style="fill:#ffffff">~~</text>
<text y="204.0" x="12.0" style="fill:#1a1818">▲▲</text>
<text y="204.0" x="24.0" style="fill:#1b8b1b">⌄⌄⌄⌄⌄⌄⌄⌄⌄⌄</text>
<text y="204.0" x="84.0" style="fill:#eab91c">██</text>
<text y="204.0" x="96.0" style="fill:#1b8b1b">⌄⌄⌄⌄⌄⌄⌄⌄⌄⌄●▊▅●</text>
<text y="204.0" x="180.0" style="fill:#000000">╹┸╵</text>
<text y="204.0" x="198.0" style="fill:#1b8b1b">█⌄</text>
</text>
<text y="204.0" x="210.0" style="fill:#ffffff">~<text y="215.5" x="0.0" style="fill:#1a1818">▲</text>
<text y="215.5" x="6.0" style="fill:#1a1818">▲▲▲</text>
<text y="215.5" x="24.0" style="fill:#1b8b1b">⌄⌄⌄⌄⌄⌄⌄⌄⌄⌄⌄</text>
<text y="215.5" x="90.0" style="fill:#eab91c">█</text>
<text y="215.5" x="96.0" style="fill:#1b8b1b">⌄⌄⌄⌄⌄⌄⌄⌄⌄⌄⌄</text>
<text y="215.5" x="162.0" style="fill:#000000">╵╹</text>
<text y="215.5" x="174.0" style="fill:#1b8b1b">⌄⌄●</text>
<text y="215.5" x="192.0" style="fill:#1b8b1b">●</text>
<text y="215.5" x="198.0" style="fill:#000000">╹</text>
<text y="215.5" x="204.0" style="fill:#1b8b1b">⌄</text>
⌄<text y="227.0" x="0.0" style="fill:#1a1818">▲▲▲▲</text>
<text y="227.0" x="24.0" style="fill:#1b8b1b">⌄⌄⌄⌄⌄⌄⌄⌄⌄⌄⌄⌄⌄⌄⌄⌄⌄⌄⌄⌄⌄⌄⌄</text>
<text y="227.0" x="162.0" style="fill:#1b8b1b">▆▊</text>
<text y="227.0" x="174.0" style="fill:#1b8b1b">⌄⌄⌄⌄●⌄</text>
⌄</svg>
