<?xml version="1.0" encoding="UTF-8" standalone="no"?>
    <svg xmlns="http://www.w3.org/2000/svg" version="1.1" width="336.0px" height="414.0px" viewBox="0 0 336.0 414.0" style="letter-spacing:0em;font-size:10px;font-family:&apos;DejaVu Sans Mono&apos;;stroke:none">
    <text y="8.5" x="0.0" style="fill:#0d49e4">█████</text>
<text y="8.5" x="30.0" style="fill:#268dca">████</text>
<text y="8.5" x="54.0" style="fill:#34d231">██</text>
<text y="8.5" x="66.0" style="fill:#34d231">█</text>
<text y="8.5" x="72.0" style="fill:#268dca">███████</text>
<text y="8.5" x="114.0" style="fill:#0d49e4">█████████████████████████████████████</text>
<text y="20.0" x="0.0" style="fill:#0d49e4">█████</text>
<text y="20.0" x="30.0" style="fill:#268dca">████</text>
<text y="20.0" x="54.0" style="fill:#34d231">██</text>
<text y="20.0" x="66.0" style="fill:#cdcdcd">█</text>
<text y="20.0" x="72.0" style="fill:#268dca">█████</text>
<text y="20.0" x="102.0" style="fill:#0d49e4">███████████████████████████████████████</text>
<text y="31.5" x="0.0" style="fill:#0d49e4">█</text>
<text y="31.5" x="6.0" style="fill:#268dca">████████</text>
<text y="31.5" x="54.0" style="fill:#cdcdcd">█████</text>
<text y="31.5" x="84.0" style="fill:#eab91c">█</text>
<text y="31.5" x="90.0" style="fill:#268dca">███</text>
<text y="31.5" x="108.0" style="fill:#0d49e4">██████████████████████████████████████</text>
<text y="43.0" x="0.0" style="fill:#268dca">███████</text>
<text y="43.0" x="42.0" style="fill:#34d231">█</text>
<text y="43.0" x="48.0" style="fill:#cdcdcd">█</text>
<text y="43.0" x="54.0" style="fill:#cdcdcd">██████</text>
<text y="43.0" x="90.0" style="fill:#268dca">█████</text>
<text y="43.0" x="120.0" style="fill:#0d49e4">████████████████████████████████████</text>
<text y="54.5" x="0.0" style="fill:#268dca">███</text>
<text y="54.5" x="18.0" style="fill:#34d231">█</text>
<text y="54.5" x="24.0" style="fill:#cdcdcd">█████</text>
<text y="54.5" x="54.0" style="fill:#cdcdcd">█</text>
<text y="54.5" x="60.0" style="fill:#cdcdcd">█</text>
<text y="54.5" x="66.0" style="fill:#cdcdcd">█</text>
<text y="54.5" x="72.0" style="fill:#cdcdcd">██</text>
<text y="54.5" x="84.0" style="fill:#cdcdcd">█</text>
<text y="54.5" x="90.0" style="fill:#eab91c">█</text>
<text y="54.5" x="96.0" style="fill:#268dca">████</text>
<text y="54.5" x="120.0" style="fill:#0d49e4">████████████████████████████████████</text>
<text y="66.0" x="0.0" style="fill:#268dca">███</text>
<text y="66.0" x="18.0" style="fill:#cdcdcd">█</text>
<text y="66.0" x="24.0" style="fill:#cdcdcd">██████</text>
<text y="66.0" x="60.0" style="fill:#cdcdcd">█</text>
<text y="66.0" x="66.0" style="fill:#cdcdcd">█</text>
<text y="66.0" x="72.0" style="fill:#cdcdcd">██</text>
<text y="66.0" x="84.0" style="fill:#cdcdcd">█</text>
<text y="66.0" x="90.0" style="fill:#cdcdcd">█</text>
<text y="66.0" x="96.0" style="fill:#268dca">████</text>
<text y="66.0" x="120.0" style="fill:#0d49e4">████████████████████████████████████</text>
<text y="77.5" x="0.0" style="fill:#268dca">███</text>
<text y="77.5" x="18.0" style="fill:#cdcdcd">█</text>
<text y="77.5" x="24.0" style="fill:#cdcdcd">█</text>
<text y="77.5" x="30.0" style="fill:#cdcdcd">█████</text>
<text y="77.5" x="60.0" style="fill:#cdcdcd">███</text>
<text y="77.5" x="78.0" style="fill:#cdcdcd">█</text>
<text y="77.5" x="84.0" style="fill:#cdcdcd">█</text>
<text y="77.5" x="90.0" style="fill:#cdcdcd">█</text>
<text y="77.5" x="96.0" style="fill:#268dca">████</text>
<text y="77.5" x="120.0" style="fill:#0d49e4">████████████████████████████████████</text>
<text y="89.0" x="0.0" style="fill:#268dca">███</text>
<text y="89.0" x="18.0" style="fill:#cdcdcd">█</text>
<text y="89.0" x="24.0" style="fill:#cdcdcd">█</text>
<text y="89.0" x="30.0" style="fill:#cdcdcd">█████</text>
<text y="89.0" x="60.0" style="fill:#cdcdcd">█</text>
<text y="89.0" x="66.0" style="fill:#cdcdcd">███</text>
<text y="89.0" x="84.0" style="fill:#cdcdcd">█</text>
<text y="89.0" x="90.0" style="fill:#cdcdcd">█</text>
<text y="89.0" x="96.0" style="fill:#268dca">████</text>
<text y="89.0" x="120.0" style="fill:#0d49e4">████████████████████████████████████</text>
<text y="100.5" x="0.0" style="fill:#268dca">███</text>
<text y="100.5" x="18.0" style="fill:#cdcdcd">█</text>
<text y="100.5" x="24.0" style="fill:#cdcdcd">███████</text>
<text y="100.5" x="66.0" style="fill:#cdcdcd">█</text>
<text y="100.5" x="72.0" style="fill:#34d231">█</text>
<text y="100.5" x="78.0" style="fill:#cdcdcd">█</text>
<text y="100.5" x="84.0" style="fill:#cdcdcd">█</text>
<text y="100.5" x="90.0" style="fill:#eab91c">█</text>
<text y="100.5" x="96.0" style="fill:#268dca">████</text>
<text y="100.5" x="120.0" style="fill:#0d49e4">████████████████████████████████████</text>
<text y="112.0" x="0.0" style="fill:#268dca">███</text>
<text y="112.0" x="18.0" style="fill:#34d231">█</text>
<text y="112.0" x="24.0" style="fill:#cdcdcd">█</text>
<text y="112.0" x="30.0" style="fill:#cdcdcd">█</text>
<text y="112.0" x="36.0" style="fill:#cdcdcd">███</text>
<text y="112.0" x="54.0" style="fill:#cdcdcd">█</text>
<text y="112.0" x="60.0" style="fill:#cdcdcd">█</text>
<text y="112.0" x="66.0" style="fill:#268dca">███</text>
<text y="112.0" x="84.0" style="fill:#268dca">█</text>
<text y="112.0" x="90.0" style="fill:#268dca">█████</text>
<text y="112.0" x="120.0" style="fill:#0d49e4">████████████████████████████████████</text>
<text y="123.5" x="0.0" style="fill:#268dca">███</text>
<text y="123.5" x="18.0" style="fill:#34d231">█</text>
<text y="123.5" x="24.0" style="fill:#cdcdcd">█</text>
<text y="123.5" x="30.0" style="fill:#cdcdcd">█</text>
<text y="123.5" x="36.0" style="fill:#cdcdcd">███</text>
<text y="123.5" x="54.0" style="fill:#cdcdcd">█</text>
<text y="123.5" x="60.0" style="fill:#268dca">███</text>
<text y="123.5" x="78.0" style="fill:#268dca">█</text>
<text y="123.5" x="84.0" style="fill:#268dca">█</text>
<text y="123.5" x="90.0" style="fill:#268dca">████</text>
<text y="123.5" x="114.0" style="fill:#eab91c">█████████████</text>
<text y="123.5" x="192.0" style="fill:#0d49e4">████████████████████████</text>
<text y="135.0" x="0.0" style="fill:#268dca">███</text>
<text y="135.0" x="18.0" style="fill:#34d231">█</text>
<text y="135.0" x="24.0" style="fill:#cdcdcd">█</text>
<text y="135.0" x="30.0" style="fill:#cdcdcd">█</text>
<text y="135.0" x="36.0" style="fill:#cdcdcd">███</text>
<text y="135.0" x="54.0" style="fill:#cdcdcd">█</text>
<text y="135.0" x="60.0" style="fill:#268dca">████</text>
<text y="135.0" x="84.0" style="fill:#268dca">█</text>
<text y="135.0" x="90.0" style="fill:#268dca">███████████████</text>
<text y="135.0" x="180.0" style="fill:#0d49e4">██████████████████████████</text>
<text y="146.5" x="0.0" style="fill:#268dca">████</text>
<text y="146.5" x="24.0" style="fill:#cdcdcd">█</text>
<text y="146.5" x="30.0" style="fill:#cdcdcd">█</text>
<text y="146.5" x="36.0" style="fill:#34d231">█</text>
<text y="146.5" x="42.0" style="fill:#cdcdcd">██</text>
<text y="146.5" x="54.0" style="fill:#cdcdcd">█</text>
<text y="146.5" x="60.0" style="fill:#268dca">███</text>
<text y="146.5" x="78.0" style="fill:#268dca">█</text>
<text y="146.5" x="84.0" style="fill:#268dca">█</text>
<text y="146.5" x="90.0" style="fill:#268dca">██</text>
<text y="146.5" x="102.0" style="fill:#34d231">████</text>
<text y="146.5" x="126.0" style="fill:#268dca">███████████</text>
<text y="146.5" x="192.0" style="fill:#0d49e4">████████████████████████</text>
<text y="158.0" x="0.0" style="fill:#268dca">████</text>
<text y="158.0" x="24.0" style="fill:#cdcdcd">█</text>
<text y="158.0" x="30.0" style="fill:#cdcdcd">█</text>
<text y="158.0" x="36.0" style="fill:#cdcdcd">███</text>
<text y="158.0" x="54.0" style="fill:#cdcdcd">█</text>
<text y="158.0" x="60.0" style="fill:#cdcdcd">███</text>
<text y="158.0" x="78.0" style="fill:#cdcdcd">██</text>
<text y="158.0" x="90.0" style="fill:#34d231">██</text>
<text y="158.0" x="102.0" style="fill:#cdcdcd">████</text>
<text y="158.0" x="126.0" style="fill:#34d231">█</text>
<text y="158.0" x="132.0" style="fill:#cdcdcd">██████</text>
<text y="158.0" x="168.0" style="fill:#268dca">███████</text>
<text y="158.0" x="210.0" style="fill:#0d49e4">█████████████████████</text>
<text y="169.5" x="0.0" style="fill:#268dca">████</text>
<text y="169.5" x="24.0" style="fill:#eab91c">█</text>
<text y="169.5" x="30.0" style="fill:#cdcdcd">██</text>
<text y="169.5" x="42.0" style="fill:#cdcdcd">█</text>
<text y="169.5" x="48.0" style="fill:#cdcdcd">█</text>
<text y="169.5" x="54.0" style="fill:#cdcdcd">█</text>
<text y="169.5" x="60.0" style="fill:#cdcdcd">███</text>
<text y="169.5" x="78.0" style="fill:#cdcdcd">██</text>
<text y="169.5" x="90.0" style="fill:#cdcdcd">████</text>
<text y="169.5" x="114.0" style="fill:#cdcdcd">█</text>
<text y="169.5" x="120.0" style="fill:#cdcdcd">█</text>
<text y="169.5" x="126.0" style="fill:#34d231">█</text>
<text y="169.5" x="132.0" style="fill:#cdcdcd">█</text>
<text y="169.5" x="138.0" style="fill:#cdcdcd">████████</text>
<text y="169.5" x="186.0" style="fill:#eab91c">█</text>
<text y="169.5" x="192.0" style="fill:#268dca">█████</text>
<text y="169.5" x="222.0" style="fill:#0d49e4">███████████████████</text>
<text y="181.0" x="0.0" style="fill:#268dca">█████</text>
<text y="181.0" x="30.0" style="fill:#cdcdcd">█</text>
<text y="181.0" x="36.0" style="fill:#cdcdcd">███████████</text>
<text y="181.0" x="102.0" style="fill:#cdcdcd">█</text>
<text y="181.0" x="108.0" style="fill:#34d231">█</text>
<text y="181.0" x="114.0" style="fill:#cdcdcd">█</text>
<text y="181.0" x="120.0" style="fill:#cdcdcd">█</text>
<text y="181.0" x="126.0" style="fill:#cdcdcd">█</text>
<text y="181.0" x="132.0" style="fill:#cdcdcd">█</text>
<text y="181.0" x="138.0" style="fill:#cdcdcd">█</text>
<text y="181.0" x="144.0" style="fill:#cdcdcd">███████</text>
<text y="181.0" x="186.0" style="fill:#cdcdcd">█</text>
<text y="181.0" x="192.0" style="fill:#eab91c">█</text>
<text y="181.0" x="198.0" style="fill:#268dca">████</text>
<text y="181.0" x="222.0" style="fill:#0d49e4">███████████████████</text>
<text y="192.5" x="0.0" style="fill:#0d49e4">█</text>
<text y="192.5" x="6.0" style="fill:#268dca">█████</text>
<text y="192.5" x="36.0" style="fill:#eab91c">█</text>
<text y="192.5" x="42.0" style="fill:#cdcdcd">██████</text>
<text y="192.5" x="78.0" style="fill:#cdcdcd">█</text>
<text y="192.5" x="84.0" style="fill:#cdcdcd">██</text>
<text y="192.5" x="96.0" style="fill:#cdcdcd">█</text>
<text y="192.5" x="102.0" style="fill:#cdcdcd">█</text>
<text y="192.5" x="108.0" style="fill:#34d231">█</text>
<text y="192.5" x="114.0" style="fill:#cdcdcd">█</text>
<text y="192.5" x="120.0" style="fill:#cdcdcd">███</text>
<text y="192.5" x="138.0" style="fill:#cdcdcd">█</text>
<text y="192.5" x="144.0" style="fill:#cdcdcd">███████</text>
<text y="192.5" x="186.0" style="fill:#cdcdcd">█</text>
<text y="192.5" x="192.0" style="fill:#cdcdcd">█</text>
<text y="192.5" x="198.0" style="fill:#268dca">██████</text>
<text y="192.5" x="234.0" style="fill:#0d49e4">███</text>
<text y="192.5" x="252.0" style="fill:#268dca">█████████</text>
<text y="192.5" x="306.0" style="fill:#0d49e4">█████</text>
<text y="204.0" x="0.0" style="fill:#0d49e4">██</text>
<text y="204.0" x="12.0" style="fill:#268dca">████████████</text>
<text y="204.0" x="84.0" style="fill:#cdcdcd">█</text>
<text y="204.0" x="90.0" style="fill:#cdcdcd">█████████████████</text>
<text y="204.0" x="192.0" style="fill:#cdcdcd">█</text>
<text y="204.0" x="198.0" style="fill:#34d231">██</text>
<text y="204.0" x="210.0" style="fill:#268dca">████</text>
<text y="204.0" x="234.0" style="fill:#0d49e4">█</text>
<text y="204.0" x="240.0" style="fill:#268dca">█████████████</text>
<text y="204.0" x="318.0" style="fill:#0d49e4">███</text>
<text y="215.5" x="0.0" style="fill:#268dca">██████████████</text>
<text y="215.5" x="84.0" style="fill:#cdcdcd">█</text>
<text y="215.5" x="90.0" style="fill:#cdcdcd">█</text>
<text y="215.5" x="96.0" style="fill:#cdcdcd">███</text>
<text y="215.5" x="114.0" style="fill:#cdcdcd">█</text>
<text y="215.5" x="120.0" style="fill:#cdcdcd">███████████</text>
<text y="215.5" x="186.0" style="fill:#cdcdcd">█</text>
<text y="215.5" x="192.0" style="fill:#cdcdcd">█</text>
<text y="215.5" x="198.0" style="fill:#34d231">██</text>
<text y="215.5" x="210.0" style="fill:#268dca">████</text>
<text y="215.5" x="234.0" style="fill:#0d49e4">█</text>
<text y="215.5" x="240.0" style="fill:#268dca">████</text>
<text y="215.5" x="264.0" style="fill:#eab91c">█</text>
<text y="215.5" x="270.0" style="fill:#cdcdcd">█</text>
<text y="215.5" x="276.0" style="fill:#eab91c">█</text>
<text y="215.5" x="282.0" style="fill:#268dca">█</text>
<text y="215.5" x="288.0" style="fill:#34d231">█</text>
<text y="215.5" x="294.0" style="fill:#268dca">████</text>
<text y="215.5" x="318.0" style="fill:#0d49e4">███</text>
<text y="227.0" x="0.0" style="fill:#268dca">█████████</text>
<text y="227.0" x="54.0" style="fill:#0d49e4">█</text>
<text y="227.0" x="60.0" style="fill:#268dca">████</text>
<text y="227.0" x="84.0" style="fill:#cdcdcd">█</text>
<text y="227.0" x="90.0" style="fill:#cdcdcd">█</text>
<text y="227.0" x="96.0" style="fill:#cdcdcd">███</text>
<text y="227.0" x="114.0" style="fill:#cdcdcd">█</text>
<text y="227.0" x="120.0" style="fill:#cdcdcd">███████████</text>
<text y="227.0" x="186.0" style="fill:#cdcdcd">█</text>
<text y="227.0" x="192.0" style="fill:#cdcdcd">█</text>
<text y="227.0" x="198.0" style="fill:#34d231">█</text>
<text y="227.0" x="204.0" style="fill:#268dca">█████</text>
<text y="227.0" x="234.0" style="fill:#0d49e4">█</text>
<text y="227.0" x="240.0" style="fill:#268dca">████</text>
<text y="227.0" x="264.0" style="fill:#cdcdcd">███</text>
<text y="227.0" x="282.0" style="fill:#268dca">█</text>
<text y="227.0" x="288.0" style="fill:#34d231">█</text>
<text y="227.0" x="294.0" style="fill:#268dca">██████</text>
<text y="227.0" x="330.0" style="fill:#0d49e4">█</text>
<text y="238.5" x="0.0" style="fill:#268dca">██</text>
<text y="238.5" x="12.0" style="fill:#34d231">███</text>
<text y="238.5" x="30.0" style="fill:#268dca">████</text>
<text y="238.5" x="54.0" style="fill:#0d49e4">█</text>
<text y="238.5" x="60.0" style="fill:#268dca">████</text>
<text y="238.5" x="84.0" style="fill:#cdcdcd">█</text>
<text y="238.5" x="90.0" style="fill:#cdcdcd">█████</text>
<text y="238.5" x="120.0" style="fill:#cdcdcd">█</text>
<text y="238.5" x="126.0" style="fill:#cdcdcd">███████████</text>
<text y="238.5" x="192.0" style="fill:#34d231">█</text>
<text y="238.5" x="198.0" style="fill:#268dca">█████</text>
<text y="238.5" x="228.0" style="fill:#0d49e4">██</text>
<text y="238.5" x="240.0" style="fill:#268dca">████</text>
<text y="238.5" x="264.0" style="fill:#cdcdcd">██</text>
<text y="238.5" x="276.0" style="fill:#cdcdcd">█</text>
<text y="238.5" x="282.0" style="fill:#cdcdcd">██</text>
<text y="238.5" x="294.0" style="fill:#eab91c">█</text>
<text y="238.5" x="300.0" style="fill:#34d231">█</text>
<text y="238.5" x="306.0" style="fill:#268dca">████</text>
<text y="238.5" x="330.0" style="fill:#0d49e4">█</text>
<text y="250.0" x="0.0" style="fill:#268dca">██</text>
<text y="250.0" x="12.0" style="fill:#34d231">███</text>
<text y="250.0" x="30.0" style="fill:#268dca">█████████</text>
<text y="250.0" x="84.0" style="fill:#cdcdcd">██</text>
<text y="250.0" x="96.0" style="fill:#cdcdcd">████</text>
<text y="250.0" x="120.0" style="fill:#34d231">█</text>
<text y="250.0" x="126.0" style="fill:#cdcdcd">██████</text>
<text y="250.0" x="162.0" style="fill:#cdcdcd">█</text>
<text y="250.0" x="168.0" style="fill:#cdcdcd">█</text>
<text y="250.0" x="174.0" style="fill:#cdcdcd">█</text>
<text y="250.0" x="180.0" style="fill:#cdcdcd">█</text>
<text y="250.0" x="186.0" style="fill:#268dca">██████</text>
<text y="250.0" x="222.0" style="fill:#0d49e4">██</text>
<text y="250.0" x="234.0" style="fill:#268dca">█████</text>
<text y="250.0" x="264.0" style="fill:#cdcdcd">██</text>
<text y="250.0" x="276.0" style="fill:#cdcdcd">█</text>
<text y="250.0" x="282.0" style="fill:#cdcdcd">██</text>
<text y="250.0" x="294.0" style="fill:#cdcdcd">█</text>
<text y="250.0" x="300.0" style="fill:#34d231">█</text>
<text y="250.0" x="306.0" style="fill:#268dca">████</text>
<text y="250.0" x="330.0" style="fill:#0d49e4">█</text>
<text y="261.5" x="0.0" style="fill:#268dca">██</text>
<text y="261.5" x="12.0" style="fill:#34d231">███</text>
<text y="261.5" x="30.0" style="fill:#268dca">███████</text>
<text y="261.5" x="72.0" style="fill:#cdcdcd">██</text>
<text y="261.5" x="84.0" style="fill:#cdcdcd">█</text>
<text y="261.5" x="90.0" style="fill:#cdcdcd">█</text>
<text y="261.5" x="96.0" style="fill:#268dca">█████</text>
<text y="261.5" x="126.0" style="fill:#34d231">█</text>
<text y="261.5" x="132.0" style="fill:#cdcdcd">██</text>
<text y="261.5" x="144.0" style="fill:#cdcdcd">██</text>
<text y="261.5" x="156.0" style="fill:#cdcdcd">█</text>
<text y="261.5" x="162.0" style="fill:#cdcdcd">███</text>
<text y="261.5" x="180.0" style="fill:#cdcdcd">█</text>
<text y="261.5" x="186.0" style="fill:#268dca">████████████</text>
<text y="261.5" x="258.0" style="fill:#cdcdcd">█</text>
<text y="261.5" x="264.0" style="fill:#cdcdcd">██████</text>
<text y="261.5" x="300.0" style="fill:#268dca">█████</text>
<text y="261.5" x="330.0" style="fill:#0d49e4">█</text>
<text y="273.0" x="0.0" style="fill:#268dca">████████████</text>
<text y="273.0" x="72.0" style="fill:#cdcdcd">██</text>
<text y="273.0" x="84.0" style="fill:#cdcdcd">█</text>
<text y="273.0" x="90.0" style="fill:#cdcdcd">█</text>
<text y="273.0" x="96.0" style="fill:#268dca">██████</text>
<text y="273.0" x="132.0" style="fill:#cdcdcd">██████</text>
<text y="273.0" x="168.0" style="fill:#cdcdcd">██</text>
<text y="273.0" x="180.0" style="fill:#eab91c">█</text>
<text y="273.0" x="186.0" style="fill:#268dca">███████████</text>
<text y="273.0" x="252.0" style="fill:#cdcdcd">█</text>
<text y="273.0" x="258.0" style="fill:#cdcdcd">██</text>
<text y="273.0" x="270.0" style="fill:#cdcdcd">███</text>
<text y="273.0" x="288.0" style="fill:#cdcdcd">█</text>
<text y="273.0" x="294.0" style="fill:#cdcdcd">█</text>
<text y="273.0" x="300.0" style="fill:#268dca">████</text>
<text y="273.0" x="324.0" style="fill:#0d49e4">██</text>
<text y="284.5" x="0.0" style="fill:#268dca">███████</text>
<text y="284.5" x="42.0" style="fill:#0d49e4">█</text>
<text y="284.5" x="48.0" style="fill:#268dca">████</text>
<text y="284.5" x="72.0" style="fill:#cdcdcd">██</text>
<text y="284.5" x="84.0" style="fill:#cdcdcd">█</text>
<text y="284.5" x="90.0" style="fill:#268dca">███████</text>
<text y="284.5" x="132.0" style="fill:#eab91c">█</text>
<text y="284.5" x="138.0" style="fill:#cdcdcd">████</text>
<text y="284.5" x="162.0" style="fill:#cdcdcd">█</text>
<text y="284.5" x="168.0" style="fill:#cdcdcd">█</text>
<text y="284.5" x="174.0" style="fill:#268dca">█████</text>
<text y="284.5" x="204.0" style="fill:#34d231">█</text>
<text y="284.5" x="210.0" style="fill:#cdcdcd">█</text>
<text y="284.5" x="216.0" style="fill:#268dca">█████</text>
<text y="284.5" x="246.0" style="fill:#cdcdcd">█</text>
<text y="284.5" x="252.0" style="fill:#cdcdcd">██</text>
<text y="284.5" x="264.0" style="fill:#cdcdcd">████</text>
<text y="284.5" x="288.0" style="fill:#cdcdcd">█</text>
<text y="284.5" x="294.0" style="fill:#cdcdcd">█</text>
<text y="284.5" x="300.0" style="fill:#268dca">████</text>
<text y="284.5" x="324.0" style="fill:#0d49e4">██</text>
<text y="296.0" x="0.0" style="fill:#0d49e4">████████</text>
<text y="296.0" x="48.0" style="fill:#268dca">██████████</text>
<text y="296.0" x="108.0" style="fill:#0d49e4">█</text>
<text y="296.0" x="114.0" style="fill:#268dca">████████</text>
<text y="296.0" x="162.0" style="fill:#eab91c">█</text>
<text y="296.0" x="168.0" style="fill:#268dca">███████</text>
<text y="296.0" x="210.0" style="fill:#eab91c">█</text>
<text y="296.0" x="216.0" style="fill:#268dca">█████</text>
<text y="296.0" x="246.0" style="fill:#cdcdcd">█</text>
<text y="296.0" x="252.0" style="fill:#cdcdcd">█</text>
<text y="296.0" x="258.0" style="fill:#cdcdcd">██████</text>
<text y="296.0" x="294.0" style="fill:#eab91c">█</text>
<text y="296.0" x="300.0" style="fill:#268dca">████</text>
<text y="296.0" x="324.0" style="fill:#0d49e4">██</text>
<text y="307.5" x="0.0" style="fill:#0d49e4">██████████</text>
<text y="307.5" x="60.0" style="fill:#268dca">██████</text>
<text y="307.5" x="96.0" style="fill:#0d49e4">█████</text>
<text y="307.5" x="126.0" style="fill:#268dca">██████████████</text>
<text y="307.5" x="210.0" style="fill:#cdcdcd">█</text>
<text y="307.5" x="216.0" style="fill:#268dca">███</text>
<text y="307.5" x="234.0" style="fill:#34d231">█</text>
<text y="307.5" x="240.0" style="fill:#cdcdcd">█</text>
<text y="307.5" x="246.0" style="fill:#cdcdcd">█</text>
<text y="307.5" x="252.0" style="fill:#cdcdcd">██████</text>
<text y="307.5" x="288.0" style="fill:#cdcdcd">█</text>
<text y="307.5" x="294.0" style="fill:#268dca">█████</text>
<text y="307.5" x="324.0" style="fill:#0d49e4">██</text>
<text y="319.0" x="0.0" style="fill:#0d49e4">███████████████████████████████</text>
<text y="319.0" x="186.0" style="fill:#268dca">█████████</text>
<text y="319.0" x="240.0" style="fill:#cdcdcd">█</text>
<text y="319.0" x="246.0" style="fill:#cdcdcd">█</text>
<text y="319.0" x="252.0" style="fill:#cdcdcd">█</text>
<text y="319.0" x="258.0" style="fill:#268dca">█</text>
<text y="319.0" x="264.0" style="fill:#cdcdcd">████</text>
<text y="319.0" x="288.0" style="fill:#cdcdcd">█</text>
<text y="319.0" x="294.0" style="fill:#268dca">███</text>
<text y="319.0" x="312.0" style="fill:#0d49e4">████</text>
<text y="330.5" x="0.0" style="fill:#0d49e4">█████████████████████████████████</text>
<text y="330.5" x="198.0" style="fill:#268dca">███████</text>
<text y="330.5" x="240.0" style="fill:#eab91c">█</text>
<text y="330.5" x="246.0" style="fill:#cdcdcd">█</text>
<text y="330.5" x="252.0" style="fill:#268dca">██</text>
<text y="330.5" x="264.0" style="fill:#eab91c">█</text>
<text y="330.5" x="270.0" style="fill:#cdcdcd">███</text>
<text y="330.5" x="288.0" style="fill:#eab91c">█</text>
<text y="330.5" x="294.0" style="fill:#268dca">███</text>
<text y="330.5" x="312.0" style="fill:#0d49e4">████</text>
<text y="342.0" x="0.0" style="fill:#0d49e4">████████████████████████████████████</text>
<text y="342.0" x="216.0" style="fill:#268dca">████</text>
<text y="342.0" x="240.0" style="fill:#34d231">█</text>
<text y="342.0" x="246.0" style="fill:#268dca">█████████</text>
<text y="342.0" x="300.0" style="fill:#0d49e4">██████</text>
<text y="353.5" x="0.0" style="fill:#0d49e4">████████████████████████████████████</text>
<text y="353.5" x="216.0" style="fill:#268dca">█████████</text>
<text y="353.5" x="270.0" style="fill:#0d49e4">██████</text>
<text y="353.5" x="306.0" style="fill:#268dca">█████</text>
<text y="365.0" x="0.0" style="fill:#0d49e4">██████████████████████████████████████</text>
<text y="365.0" x="228.0" style="fill:#268dca">█████</text>
<text y="365.0" x="258.0" style="fill:#0d49e4">██████</text>
<text y="365.0" x="294.0" style="fill:#268dca">███████</text>
<text y="376.5" x="0.0" style="fill:#0d49e4">█████████████████████████████████████████████████</text>
<text y="376.5" x="294.0" style="fill:#268dca">████</text>
<text y="376.5" x="318.0" style="fill:#34d231">██</text>
<text y="376.5" x="330.0" style="fill:#268dca">█</text>
<text y="388.0" x="0.0" style="fill:#0d49e4">█████████████████████████████████████████████████</text>
<text y="388.0" x="294.0" style="fill:#268dca">████</text>
<text y="388.0" x="318.0" style="fill:#34d231">██</text>
<text y="388.0" x="330.0" style="fill:#268dca">█</text>
<text y="399.5" x="0.0" style="fill:#0d49e4">█████████████████████████████████████████████████</text>
<text y="399.5" x="294.0" style="fill:#268dca">████</text>
<text y="399.5" x="318.0" style="fill:#34d231">█</text>
<text y="399.5" x="324.0" style="fill:#268dca">██</text>
<text y="411.0" x="0.0" style="fill:#0d49e4">█████████████████████████████████████████████████</text>
<text y="411.0" x="294.0" style="fill:#268dca">███████</text>
<text y="8.5" x="0.0" style="fill:#ffffff">≈≈≈≈≈</text>
<text y="8.5" x="30.0" style="fill:#ffffff">~~~~</text>
<text y="8.5" x="54.0" style="fill:#1b8b1b">ˈ"</text>
<text y="8.5" x="66.0" style="fill:#1a1818">┃</text>
<text y="8.5" x="72.0" style="fill:#ffffff">~~~~~~~</text>
<text y="8.5" x="114.0" style="fill:#ffffff">≈≈≈≈≈≈≈≈≈≈≈≈≈≈≈≈≈≈≈≈≈≈≈≈≈≈≈≈≈≈≈≈≈≈≈≈≈</text>
<text y="20.0" x="0.0" style="fill:#ffffff">≈≈≈≈≈</text>
<text y="20.0" x="30.0" style="fill:#ffffff">~~~~</text>
<text y="20.0" x="54.0" style="fill:#1b8b1b">"ˈ</text>
<text y="20.0" x="66.0" style="fill:#1a1818">┃</text>
<text y="20.0" x="72.0" style="fill:#ffffff">~~~~~</text>
<text y="20.0" x="102.0" style="fill:#ffffff">≈≈≈≈≈≈≈≈≈≈≈≈≈≈≈≈≈≈≈≈≈≈≈≈≈≈≈≈≈≈≈≈≈≈≈≈≈≈≈</text>
<text y="31.5" x="0.0" style="fill:#ffffff">≈</text>
<text y="31.5" x="6.0" style="fill:#ffffff">~~~~~~~~</text>
<text y="31.5" x="54.0" style="fill:#1a1818">▝▘┃▝▀</text>
<text y="31.5" x="84.0" style="fill:#1a1818">▘</text>
<text y="31.5" x="90.0" style="fill:#ffffff">~~~</text>
<text y="31.5" x="108.0" style="fill:#ffffff">≈≈≈≈≈≈≈≈≈≈≈≈≈≈≈≈≈≈≈≈≈≈≈≈≈≈≈≈≈≈≈≈≈≈≈≈≈≈</text>
<text y="43.0" x="0.0" style="fill:#ffffff">~~~~~~~</text>
<text y="43.0" x="42.0" style="fill:#1b8b1b">ˈ</text>
<text y="43.0" x="48.0" style="fill:#000000">▘</text>
<text y="43.0" x="54.0" style="fill:#1a1818">┏━╋━━┓</text>
<text y="43.0" x="90.0" style="fill:#ffffff">~~~~~</text>
<text y="43.0" x="120.0" style="fill:#ffffff">≈≈≈≈≈≈≈≈≈≈≈≈≈≈≈≈≈≈≈≈≈≈≈≈≈≈≈≈≈≈≈≈≈≈≈≈</text>
<text y="54.5" x="0.0" style="fill:#ffffff">~~~</text>
<text y="54.5" x="18.0" style="fill:#1b8b1b">"</text>
<text y="54.5" x="24.0" style="fill:#000000">▗▖■▘▗</text>
<text y="54.5" x="54.0" style="fill:#1a1818">┃</text>
<text y="54.5" x="60.0" style="fill:#000000">▖</text>
<text y="54.5" x="66.0" style="fill:#1a1818">┃</text>
<text y="54.5" x="72.0" style="fill:#000000">▖▗</text>
<text y="54.5" x="84.0" style="fill:#1a1818">┃</text>
<text y="54.5" x="90.0" style="fill:#000000">■</text>
<text y="54.5" x="96.0" style="fill:#ffffff">~~~~</text>
<text y="54.5" x="120.0" style="fill:#ffffff">≈≈≈≈≈≈≈≈≈≈≈≈≈≈≈≈≈≈≈≈≈≈≈≈≈≈≈≈≈≈≈≈≈≈≈≈</text>
<text y="66.0" x="0.0" style="fill:#ffffff">~~~</text>
<text y="66.0" x="18.0" style="fill:#000000">▝</text>
<text y="66.0" x="24.0" style="fill:#1a1818">┏━━━━┛</text>
<text y="66.0" x="60.0" style="fill:#000000">▝</text>
<text y="66.0" x="66.0" style="fill:#1a1818">┃</text>
<text y="66.0" x="72.0" style="fill:#000000">▝▘</text>
<text y="66.0" x="84.0" style="fill:#1a1818">┃</text>
<text y="66.0" x="90.0" style="fill:#000000">■</text>
<text y="66.0" x="96.0" style="fill:#ffffff">~~~~</text>
<text y="66.0" x="120.0" style="fill:#ffffff">≈≈≈≈≈≈≈≈≈≈≈≈≈≈≈≈≈≈≈≈≈≈≈≈≈≈≈≈≈≈≈≈≈≈≈≈</text>
<text y="77.5" x="0.0" style="fill:#ffffff">~~~</text>
<text y="77.5" x="18.0" style="fill:#000000">■</text>
<text y="77.5" x="24.0" style="fill:#1a1818">┃</text>
<text y="77.5" x="30.0" style="fill:#000000">■■▘▗▝</text>
<text y="77.5" x="60.0" style="fill:#1a1818">┏┻╸</text>
<text y="77.5" x="78.0" style="fill:#000000">▘</text>
<text y="77.5" x="84.0" style="fill:#1a1818">┃</text>
<text y="77.5" x="90.0" style="fill:#000000">▗</text>
<text y="77.5" x="96.0" style="fill:#ffffff">~~~~</text>
<text y="77.5" x="120.0" style="fill:#ffffff">≈≈≈≈≈≈≈≈≈≈≈≈≈≈≈≈≈≈≈≈≈≈≈≈≈≈≈≈≈≈≈≈≈≈≈≈</text>
<text y="89.0" x="0.0" style="fill:#ffffff">~~~</text>
<text y="89.0" x="18.0" style="fill:#000000">▅</text>
<text y="89.0" x="24.0" style="fill:#1a1818">┃</text>
<text y="89.0" x="30.0" style="fill:#000000">▖▅▅▅▗</text>
<text y="89.0" x="60.0" style="fill:#1a1818">┃</text>
<text y="89.0" x="66.0" style="fill:#000000">▘▅▝</text>
<text y="89.0" x="84.0" style="fill:#1a1818">┃</text>
<text y="89.0" x="90.0" style="fill:#000000">▅</text>
<text y="89.0" x="96.0" style="fill:#ffffff">~~~~</text>
<text y="89.0" x="120.0" style="fill:#ffffff">≈≈≈≈≈≈≈≈≈≈≈≈≈≈≈≈≈≈≈≈≈≈≈≈≈≈≈≈≈≈≈≈≈≈≈≈</text>
<text y="100.5" x="0.0" style="fill:#ffffff">~~~</text>
<text y="100.5" x="18.0" style="fill:#000000">▗</text>
<text y="100.5" x="24.0" style="fill:#1a1818">┗┳━━━┳┛</text>
<text y="100.5" x="66.0" style="fill:#000000">▅</text>
<text y="100.5" x="72.0" style="fill:#1b8b1b">"</text>
<text y="100.5" x="78.0" style="fill:#000000">■</text>
<text y="100.5" x="84.0" style="fill:#1a1818">┃</text>
<text y="100.5" x="90.0" style="fill:#000000">▅</text>
<text y="100.5" x="96.0" style="fill:#ffffff">~~~~</text>
<text y="100.5" x="120.0" style="fill:#ffffff">≈≈≈≈≈≈≈≈≈≈≈≈≈≈≈≈≈≈≈≈≈≈≈≈≈≈≈≈≈≈≈≈≈≈≈≈</text>
<text y="112.0" x="0.0" style="fill:#ffffff">~~~</text>
<text y="112.0" x="18.0" style="fill:#1b8b1b">ˈ</text>
<text y="112.0" x="24.0" style="fill:#000000">■</text>
<text y="112.0" x="30.0" style="fill:#1a1818">┃</text>
<text y="112.0" x="36.0" style="fill:#000000">▝■▘</text>
<text y="112.0" x="54.0" style="fill:#1a1818">┃</text>
<text y="112.0" x="60.0" style="fill:#000000">■</text>
<text y="112.0" x="66.0" style="fill:#ffffff">~~~</text>
<text y="112.0" x="84.0" style="fill:#1a1818">║</text>
<text y="112.0" x="90.0" style="fill:#ffffff">~~~~~</text>
<text y="112.0" x="120.0" style="fill:#ffffff">≈≈≈≈≈≈≈≈≈≈≈≈≈≈≈≈≈≈≈≈≈≈≈≈≈≈≈≈≈≈≈≈≈≈≈≈</text>
<text y="123.5" x="0.0" style="fill:#ffffff">~~~</text>
<text y="123.5" x="18.0" style="fill:#1b8b1b">"</text>
<text y="123.5" x="24.0" style="fill:#000000">▝</text>
<text y="123.5" x="30.0" style="fill:#1a1818">┃</text>
<text y="123.5" x="36.0" style="fill:#000000">▖■▘</text>
<text y="123.5" x="54.0" style="fill:#1a1818">┣</text>
<text y="123.5" x="60.0" style="fill:#1a1818">──╴</text>
<text y="123.5" x="78.0" style="fill:#ffffff">~</text>
<text y="123.5" x="84.0" style="fill:#1a1818">║</text>
<text y="123.5" x="90.0" style="fill:#ffffff">~~~~</text>
<text y="123.5" x="114.0" style="fill:#000000"> Wolf's Peak </text>
<text y="123.5" x="192.0" style="fill:#ffffff">≈≈≈≈≈≈≈≈≈≈≈≈≈≈≈≈≈≈≈≈≈≈≈≈</text>
<text y="135.0" x="0.0" style="fill:#ffffff">~~~</text>
<text y="135.0" x="18.0" style="fill:#1b8b1b">"</text>
<text y="135.0" x="24.0" style="fill:#000000">▘</text>
<text y="135.0" x="30.0" style="fill:#1a1818">┃</text>
<text y="135.0" x="36.0" style="fill:#000000">▝▝▅</text>
<text y="135.0" x="54.0" style="fill:#1a1818">┃</text>
<text y="135.0" x="60.0" style="fill:#ffffff">~~~~</text>
<text y="135.0" x="84.0" style="fill:#1a1818">║</text>
<text y="135.0" x="90.0" style="fill:#ffffff">~~~~~~~~~~~~~~~</text>
<text y="135.0" x="180.0" style="fill:#ffffff">≈≈≈≈≈≈≈≈≈≈≈≈≈≈≈≈≈≈≈≈≈≈≈≈≈≈</text>
<text y="146.5" x="0.0" style="fill:#ffffff">~~~~</text>
<text y="146.5" x="24.0" style="fill:#000000">▝</text>
<text y="146.5" x="30.0" style="fill:#1a1818">┃</text>
<text y="146.5" x="36.0" style="fill:#1b8b1b">⌄</text>
<text y="146.5" x="42.0" style="fill:#000000">▘▝</text>
<text y="146.5" x="54.0" style="fill:#1a1818">┣</text>
<text y="146.5" x="60.0" style="fill:#1a1818">──╴</text>
<text y="146.5" x="78.0" style="fill:#ffffff">~</text>
<text y="146.5" x="84.0" style="fill:#1a1818">║</text>
<text y="146.5" x="90.0" style="fill:#ffffff">~~</text>
<text y="146.5" x="102.0" style="fill:#1b8b1b">"ˈ⌄ˈ</text>
<text y="146.5" x="126.0" style="fill:#ffffff">~~~~~~~~~~~</text>
<text y="146.5" x="192.0" style="fill:#ffffff">≈≈≈≈≈≈≈≈≈≈≈≈≈≈≈≈≈≈≈≈≈≈≈≈</text>
<text y="158.0" x="0.0" style="fill:#ffffff">~~~~</text>
<text y="158.0" x="24.0" style="fill:#000000">▗</text>
<text y="158.0" x="30.0" style="fill:#1a1818">┃</text>
<text y="158.0" x="36.0" style="fill:#000000">▝▖▝</text>
<text y="158.0" x="54.0" style="fill:#1a1818">┃</text>
<text y="158.0" x="60.0" style="fill:#000000">■▖▖</text>
<text y="158.0" x="78.0" style="fill:#1a1818">▗┃</text>
<text y="158.0" x="90.0" style="fill:#1b8b1b">⌄ˈ</text>
<text y="158.0" x="102.0" style="fill:#000000">████</text>
<text y="158.0" x="126.0" style="fill:#1b8b1b">ˈ</text>
<text y="158.0" x="132.0" style="fill:#000000">██▝▝▗▘</text>
<text y="158.0" x="168.0" style="fill:#ffffff">~~~~~~~</text>
<text y="158.0" x="210.0" style="fill:#ffffff">≈≈≈≈≈≈≈≈≈≈≈≈≈≈≈≈≈≈≈≈≈</text>
<text y="169.5" x="0.0" style="fill:#ffffff">~~~~</text>
<text y="169.5" x="24.0" style="fill:#000000">▘</text>
<text y="169.5" x="30.0" style="fill:#1a1818">┗┓</text>
<text y="169.5" x="42.0" style="fill:#000000">▅</text>
<text y="169.5" x="48.0" style="fill:#1b8b1b">●</text>
<text y="169.5" x="54.0" style="fill:#1a1818">┃</text>
<text y="169.5" x="60.0" style="fill:#000000">▗▝▘</text>
<text y="169.5" x="78.0" style="fill:#1a1818">▝┃</text>
<text y="169.5" x="90.0" style="fill:#000000">▗▝█▗</text>
<text y="169.5" x="114.0" style="fill:#1a1818">╻</text>
<text y="169.5" x="120.0" style="fill:#000000">█</text>
<text y="169.5" x="126.0" style="fill:#1b8b1b">ˈ</text>
<text y="169.5" x="132.0" style="fill:#000000">█</text>
<text y="169.5" x="138.0" style="fill:#1a1818">┏━━━━━━━</text>
<text y="169.5" x="186.0" style="fill:#1a1818">┓</text>
<text y="169.5" x="192.0" style="fill:#ffffff">~~~~~</text>
<text y="169.5" x="222.0" style="fill:#ffffff">≈≈≈≈≈≈≈≈≈≈≈≈≈≈≈≈≈≈≈</text>
<text y="181.0" x="0.0" style="fill:#ffffff">~~~~~</text>
<text y="181.0" x="30.0" style="fill:#000000">▘</text>
<text y="181.0" x="36.0" style="fill:#1a1818">┗━━┻━━━━┻━┓</text>
<text y="181.0" x="102.0" style="fill:#000000">▝</text>
<text y="181.0" x="108.0" style="fill:#1b8b1b">ˈ</text>
<text y="181.0" x="114.0" style="fill:#1a1818">┃</text>
<text y="181.0" x="120.0" style="fill:#000000">▘</text>
<text y="181.0" x="126.0" style="fill:#1b8b1b">▊</text>
<text y="181.0" x="132.0" style="fill:#000000">▖</text>
<text y="181.0" x="138.0" style="fill:#1a1818">┃</text>
<text y="181.0" x="144.0" style="fill:#000000">▘▘▖■▗▝▖</text>
<text y="181.0" x="186.0" style="fill:#1a1818">┃</text>
<text y="181.0" x="192.0" style="fill:#000000">▖</text>
<text y="181.0" x="198.0" style="fill:#ffffff">~~~~</text>
<text y="181.0" x="222.0" style="fill:#ffffff">≈≈≈≈≈≈≈≈≈≈≈≈≈≈≈≈≈≈≈</text>
<text y="192.5" x="0.0" style="fill:#ffffff">≈</text>
<text y="192.5" x="6.0" style="fill:#ffffff">~~~~~</text>
<text y="192.5" x="36.0" style="fill:#000000">▅</text>
<text y="192.5" x="42.0" style="fill:#000000">▗▝▘■▘▗</text>
<text y="192.5" x="78.0" style="fill:#1a1818">▜</text>
<text y="192.5" x="84.0" style="fill:#000000">▗▅</text>
<text y="192.5" x="96.0" style="fill:#1a1818">┃</text>
<text y="192.5" x="102.0" style="fill:#000000">■</text>
<text y="192.5" x="108.0" style="fill:#1b8b1b">"</text>
<text y="192.5" x="114.0" style="fill:#1a1818">┃</text>
<text y="192.5" x="120.0" style="fill:#000000">▝╹▖</text>
<text y="192.5" x="138.0" style="fill:#1a1818">┃</text>
<text y="192.5" x="144.0" style="fill:#000000">▖▘▅▖▅▖▗</text>
<text y="192.5" x="186.0" style="fill:#1a1818">┃</text>
<text y="192.5" x="192.0" style="fill:#000000">▘</text>
<text y="192.5" x="198.0" style="fill:#ffffff">~~~~~~</text>
<text y="192.5" x="234.0" style="fill:#ffffff">≈≈≈</text>
<text y="192.5" x="252.0" style="fill:#ffffff">~~~~~~~~~</text>
<text y="192.5" x="306.0" style="fill:#ffffff">≈≈≈≈≈</text>
<text y="204.0" x="0.0" style="fill:#ffffff">≈≈</text>
<text y="204.0" x="12.0" style="fill:#ffffff">~~~~~~~~~~~~</text>
<text y="204.0" x="84.0" style="fill:#000000">▗</text>
<text y="204.0" x="90.0" style="fill:#1a1818">┏┻━━╋━━━┻━━━━━━━┫</text>
<text y="204.0" x="192.0" style="fill:#000000">■</text>
<text y="204.0" x="198.0" style="fill:#1b8b1b">⌄"</text>
<text y="204.0" x="210.0" style="fill:#ffffff">~~~~</text>
<text y="204.0" x="234.0" style="fill:#ffffff">≈</text>
<text y="204.0" x="240.0" style="fill:#ffffff">~~~~~~~~~~~~~</text>
<text y="204.0" x="318.0" style="fill:#ffffff">≈≈≈</text>
<text y="215.5" x="0.0" style="fill:#ffffff">~~~~~~~~~~~~~~</text>
<text y="215.5" x="84.0" style="fill:#000000">▘</text>
<text y="215.5" x="90.0" style="fill:#1a1818">┃</text>
<text y="215.5" x="96.0" style="fill:#000000">▗▖▗</text>
<text y="215.5" x="114.0" style="fill:#1a1818">┃</text>
<text y="215.5" x="120.0" style="fill:#000000">▗▖▖■▘▝▖▗▗▘▝</text>
<text y="215.5" x="186.0" style="fill:#1a1818">┃</text>
<text y="215.5" x="192.0" style="fill:#000000">■</text>
<text y="215.5" x="198.0" style="fill:#1b8b1b">⌄ˈ</text>
<text y="215.5" x="210.0" style="fill:#ffffff">~~~~</text>
<text y="215.5" x="234.0" style="fill:#ffffff">≈</text>
<text y="215.5" x="240.0" style="fill:#ffffff">~~~~</text>
<text y="215.5" x="264.0" style="fill:#000000">▖</text>
<text y="215.5" x="270.0" style="fill:#000000">▗</text>
<text y="215.5" x="276.0" style="fill:#000000">■</text>
<text y="215.5" x="282.0" style="fill:#ffffff">~</text>
<text y="215.5" x="288.0" style="fill:#1b8b1b">⌄</text>
<text y="215.5" x="294.0" style="fill:#ffffff">~~~~</text>
<text y="215.5" x="318.0" style="fill:#ffffff">≈≈≈</text>
<text y="227.0" x="0.0" style="fill:#ffffff">~~~~~~~~~</text>
<text y="227.0" x="54.0" style="fill:#ffffff">≈</text>
<text y="227.0" x="60.0" style="fill:#ffffff">~~~~</text>
<text y="227.0" x="84.0" style="fill:#000000">▝</text>
<text y="227.0" x="90.0" style="fill:#1a1818">┃</text>
<text y="227.0" x="96.0" style="fill:#000000">▝▘■</text>
<text y="227.0" x="114.0" style="fill:#1a1818">┃</text>
<text y="227.0" x="120.0" style="fill:#000000">▗▘▖▘■▖▝■▝▘■</text>
<text y="227.0" x="186.0" style="fill:#1a1818">┃</text>
<text y="227.0" x="192.0" style="fill:#000000">▘</text>
<text y="227.0" x="198.0" style="fill:#1b8b1b">ˈ</text>
<text y="227.0" x="204.0" style="fill:#ffffff">~~~~~</text>
<text y="227.0" x="234.0" style="fill:#ffffff">≈</text>
<text y="227.0" x="240.0" style="fill:#ffffff">~~~~</text>
<text y="227.0" x="264.0" style="fill:#1a1818">╺━┓</text>
<text y="227.0" x="282.0" style="fill:#ffffff">~</text>
<text y="227.0" x="288.0" style="fill:#1b8b1b">⌄</text>
<text y="227.0" x="294.0" style="fill:#ffffff">~~~~~~</text>
<text y="227.0" x="330.0" style="fill:#ffffff">≈</text>
<text y="238.5" x="0.0" style="fill:#ffffff">~~</text>
<text y="238.5" x="12.0" style="fill:#1b8b1b">"⌄"</text>
<text y="238.5" x="30.0" style="fill:#ffffff">~~~~</text>
<text y="238.5" x="54.0" style="fill:#ffffff">≈</text>
<text y="238.5" x="60.0" style="fill:#ffffff">~~~~</text>
<text y="238.5" x="84.0" style="fill:#000000">■</text>
<text y="238.5" x="90.0" style="fill:#1a1818">┣━━━┛</text>
<text y="238.5" x="120.0" style="fill:#000000">■</text>
<text y="238.5" x="126.0" style="fill:#1a1818">╺━━━━━┳━┳━┛</text>
<text y="238.5" x="192.0" style="fill:#1b8b1b">⌄</text>
<text y="238.5" x="198.0" style="fill:#ffffff">~~~~~</text>
<text y="238.5" x="228.0" style="fill:#ffffff">≈≈</text>
<text y="238.5" x="240.0" style="fill:#ffffff">~~~~</text>
<text y="238.5" x="264.0" style="fill:#000000">▖■</text>
<text y="238.5" x="276.0" style="fill:#1a1818">┃</text>
<text y="238.5" x="282.0" style="fill:#000000">▝▖</text>
<text y="238.5" x="294.0" style="fill:#1a1818">╻</text>
<text y="238.5" x="300.0" style="fill:#1b8b1b">"</text>
<text y="238.5" x="306.0" style="fill:#ffffff">~~~~</text>
<text y="238.5" x="330.0" style="fill:#ffffff">≈</text>
<text y="250.0" x="0.0" style="fill:#ffffff">~~</text>
<text y="250.0" x="12.0" style="fill:#1b8b1b">ˈ●"</text>
<text y="250.0" x="30.0" style="fill:#ffffff">~~~~~~~~~</text>
<text y="250.0" x="84.0" style="fill:#1a1818">┏┛</text>
<text y="250.0" x="96.0" style="fill:#000000">▖▖▖▖</text>
<text y="250.0" x="120.0" style="fill:#1b8b1b">"</text>
<text y="250.0" x="126.0" style="fill:#000000">▗▖▘■■▗</text>
<text y="250.0" x="162.0" style="fill:#1a1818">┃</text>
<text y="250.0" x="168.0" style="fill:#000000">▘</text>
<text y="250.0" x="174.0" style="fill:#1a1818">┃</text>
<text y="250.0" x="180.0" style="fill:#000000">▝</text>
<text y="250.0" x="186.0" style="fill:#ffffff">~~~~~~</text>
<text y="250.0" x="222.0" style="fill:#ffffff">≈≈</text>
<text y="250.0" x="234.0" style="fill:#ffffff">~~~~~</text>
<text y="250.0" x="264.0" style="fill:#000000">▅■</text>
<text y="250.0" x="276.0" style="fill:#1a1818">┃</text>
<text y="250.0" x="282.0" style="fill:#000000">▝▝</text>
<text y="250.0" x="294.0" style="fill:#1a1818">┃</text>
<text y="250.0" x="300.0" style="fill:#1b8b1b">"</text>
<text y="250.0" x="306.0" style="fill:#ffffff">~~~~</text>
<text y="250.0" x="330.0" style="fill:#ffffff">≈</text>
<text y="261.5" x="0.0" style="fill:#ffffff">~~</text>
<text y="261.5" x="12.0" style="fill:#1b8b1b">ˈ⌄"</text>
<text y="261.5" x="30.0" style="fill:#ffffff">~~~~~~~</text>
<text y="261.5" x="72.0" style="fill:#000000">██</text>
<text y="261.5" x="84.0" style="fill:#1a1818">┃</text>
<text y="261.5" x="90.0" style="fill:#000000">▗</text>
<text y="261.5" x="96.0" style="fill:#ffffff">~~~~~</text>
<text y="261.5" x="126.0" style="fill:#1b8b1b">⌄</text>
<text y="261.5" x="132.0" style="fill:#000000">■▖</text>
<text y="261.5" x="144.0" style="fill:#1a1818">▲▲</text>
<text y="261.5" x="156.0" style="fill:#000000">■</text>
<text y="261.5" x="162.0" style="fill:#1a1818">┣━┛</text>
<text y="261.5" x="180.0" style="fill:#000000">▘</text>
<text y="261.5" x="186.0" style="fill:#ffffff">~~~~~~~~~~~~</text>
<text y="261.5" x="258.0" style="fill:#000000">▘</text>
<text y="261.5" x="264.0" style="fill:#1a1818">┏━┻━┳┛</text>
<text y="261.5" x="300.0" style="fill:#ffffff">~~~~~</text>
<text y="261.5" x="330.0" style="fill:#ffffff">≈</text>
<text y="273.0" x="0.0" style="fill:#ffffff">~~~~~~~~~~~~</text>
<text y="273.0" x="72.0" style="fill:#000000">██</text>
<text y="273.0" x="84.0" style="fill:#1a1818">┃</text>
<text y="273.0" x="90.0" style="fill:#000000">▝</text>
<text y="273.0" x="96.0" style="fill:#ffffff">~~~~~~</text>
<text y="273.0" x="132.0" style="fill:#1a1818">┏━━━━┫</text>
<text y="273.0" x="168.0" style="fill:#000000">▗▘</text>
<text y="273.0" x="180.0" style="fill:#000000">▅</text>
<text y="273.0" x="186.0" style="fill:#ffffff">~~~~~~~~~~~</text>
<text y="273.0" x="252.0" style="fill:#000000">▖</text>
<text y="273.0" x="258.0" style="fill:#1a1818">┏┛</text>
<text y="273.0" x="270.0" style="fill:#000000">███</text>
<text y="273.0" x="288.0" style="fill:#1a1818">┃</text>
<text y="273.0" x="294.0" style="fill:#000000">▗</text>
<text y="273.0" x="300.0" style="fill:#ffffff">~~~~</text>
<text y="273.0" x="324.0" style="fill:#ffffff">≈≈</text>
<text y="284.5" x="0.0" style="fill:#ffffff">~~~~~~~</text>
<text y="284.5" x="42.0" style="fill:#ffffff">≈</text>
<text y="284.5" x="48.0" style="fill:#ffffff">~~~~</text>
<text y="284.5" x="72.0" style="fill:#000000">██</text>
<text y="284.5" x="84.0" style="fill:#1a1818">┗</text>
<text y="284.5" x="90.0" style="fill:#1a1818">═══════</text>
<text y="284.5" x="132.0" style="fill:#1a1818">┛</text>
<text y="284.5" x="138.0" style="fill:#000000">▅▅■▅</text>
<text y="284.5" x="162.0" style="fill:#1a1818">┃</text>
<text y="284.5" x="168.0" style="fill:#000000">▘</text>
<text y="284.5" x="174.0" style="fill:#ffffff">~~~~~</text>
<text y="284.5" x="204.0" style="fill:#1b8b1b">ˈ</text>
<text y="284.5" x="210.0" style="fill:#000000">█</text>
<text y="284.5" x="216.0" style="fill:#ffffff">~~~~~</text>
<text y="284.5" x="246.0" style="fill:#000000">▅</text>
<text y="284.5" x="252.0" style="fill:#1a1818">╺┫</text>
<text y="284.5" x="264.0" style="fill:#000000">▘██▘</text>
<text y="284.5" x="288.0" style="fill:#1a1818">┃</text>
<text y="284.5" x="294.0" style="fill:#000000">▖</text>
<text y="284.5" x="300.0" style="fill:#ffffff">~~~~</text>
<text y="284.5" x="324.0" style="fill:#ffffff">≈≈</text>
<text y="296.0" x="0.0" style="fill:#ffffff">≈≈≈≈≈≈≈≈</text>
<text y="296.0" x="48.0" style="fill:#ffffff">~~~~~~~~~~</text>
<text y="296.0" x="108.0" style="fill:#ffffff">≈</text>
<text y="296.0" x="114.0" style="fill:#ffffff">~~~~~~~~</text>
<text y="296.0" x="162.0" style="fill:#1a1818">┗</text>
<text y="296.0" x="168.0" style="fill:#1a1818">═══════</text>
<text y="296.0" x="210.0" style="fill:#1a1818">━</text>
<text y="296.0" x="216.0" style="fill:#1a1818">═════</text>
<text y="296.0" x="246.0" style="fill:#1a1818">┓</text>
<text y="296.0" x="252.0" style="fill:#000000">▝</text>
<text y="296.0" x="258.0" style="fill:#1a1818">┗━━━━┫</text>
<text y="296.0" x="294.0" style="fill:#000000">▗</text>
<text y="296.0" x="300.0" style="fill:#ffffff">~~~~</text>
<text y="296.0" x="324.0" style="fill:#ffffff">≈≈</text>
<text y="307.5" x="0.0" style="fill:#ffffff">≈≈≈≈≈≈≈≈≈≈</text>
<text y="307.5" x="60.0" style="fill:#ffffff">~~~~~~</text>
<text y="307.5" x="96.0" style="fill:#ffffff">≈≈≈≈≈</text>
<text y="307.5" x="126.0" style="fill:#ffffff">~~~~~~~~~~~~~~</text>
<text y="307.5" x="210.0" style="fill:#000000">█</text>
<text y="307.5" x="216.0" style="fill:#ffffff">~~~</text>
<text y="307.5" x="234.0" style="fill:#1b8b1b">"</text>
<text y="307.5" x="240.0" style="fill:#000000">▗</text>
<text y="307.5" x="246.0" style="fill:#1a1818">┃</text>
<text y="307.5" x="252.0" style="fill:#000000">▝▝▘▅▖▝</text>
<text y="307.5" x="288.0" style="fill:#1a1818">┃</text>
<text y="307.5" x="294.0" style="fill:#ffffff">~~~~~</text>
<text y="307.5" x="324.0" style="fill:#ffffff">≈≈</text>
<text y="319.0" x="0.0" style="fill:#ffffff">≈≈≈≈≈≈≈≈≈≈≈≈≈≈≈≈≈≈≈≈≈≈≈≈≈≈≈≈≈≈≈</text>
<text y="319.0" x="186.0" style="fill:#ffffff">~~~~~~~~~</text>
<text y="319.0" x="240.0" style="fill:#000000">▖</text>
<text y="319.0" x="246.0" style="fill:#1a1818">┃</text>
<text y="319.0" x="252.0" style="fill:#000000">■</text>
<text y="319.0" x="258.0" style="fill:#ffffff">~</text>
<text y="319.0" x="264.0" style="fill:#000000">▘▗▗▘</text>
<text y="319.0" x="288.0" style="fill:#1a1818">┃</text>
<text y="319.0" x="294.0" style="fill:#ffffff">~~~</text>
<text y="319.0" x="312.0" style="fill:#ffffff">≈≈≈≈</text>
<text y="330.5" x="0.0" style="fill:#ffffff">≈≈≈≈≈≈≈≈≈≈≈≈≈≈≈≈≈≈≈≈≈≈≈≈≈≈≈≈≈≈≈≈≈</text>
<text y="330.5" x="198.0" style="fill:#ffffff">~~~~~~~</text>
<text y="330.5" x="240.0" style="fill:#000000">■</text>
<text y="330.5" x="246.0" style="fill:#1a1818">╹</text>
<text y="330.5" x="252.0" style="fill:#ffffff">~~</text>
<text y="330.5" x="264.0" style="fill:#1a1818">╺</text>
<text y="330.5" x="270.0" style="fill:#1a1818">━━━</text>
<text y="330.5" x="288.0" style="fill:#1a1818">┛</text>
<text y="330.5" x="294.0" style="fill:#ffffff">~~~</text>
<text y="330.5" x="312.0" style="fill:#ffffff">≈≈≈≈</text>
<text y="342.0" x="0.0" style="fill:#ffffff">≈≈≈≈≈≈≈≈≈≈≈≈≈≈≈≈≈≈≈≈≈≈≈≈≈≈≈≈≈≈≈≈≈≈≈≈</text>
<text y="342.0" x="216.0" style="fill:#ffffff">~~~~</text>
<text y="342.0" x="240.0" style="fill:#1b8b1b">⌄</text>
<text y="342.0" x="246.0" style="fill:#ffffff">~~~~~~~~~</text>
<text y="342.0" x="300.0" style="fill:#ffffff">≈≈≈≈≈≈</text>
<text y="353.5" x="0.0" style="fill:#ffffff">≈≈≈≈≈≈≈≈≈≈≈≈≈≈≈≈≈≈≈≈≈≈≈≈≈≈≈≈≈≈≈≈≈≈≈≈</text>
<text y="353.5" x="216.0" style="fill:#ffffff">~~~~~~~~~</text>
<text y="353.5" x="270.0" style="fill:#ffffff">≈≈≈≈≈≈</text>
<text y="353.5" x="306.0" style="fill:#ffffff">~~~~~</text>
<text y="365.0" x="0.0" style="fill:#ffffff">≈≈≈≈≈≈≈≈≈≈≈≈≈≈≈≈≈≈≈≈≈≈≈≈≈≈≈≈≈≈≈≈≈≈≈≈≈≈</text>
<text y="365.0" x="228.0" style="fill:#ffffff">~~~~~</text>
<text y="365.0" x="258.0" style="fill:#ffffff">≈≈≈≈≈≈</text>
<text y="365.0" x="294.0" style="fill:#ffffff">~~~~~~~</text>
<text y="376.5" x="0.0" style="fill:#ffffff">≈≈≈≈≈≈≈≈≈≈≈≈≈≈≈≈≈≈≈≈≈≈≈≈≈≈≈≈≈≈≈≈≈≈≈≈≈≈≈≈≈≈≈≈≈≈≈≈≈</text>
<text y="376.5" x="294.0" style="fill:#ffffff">~~~~</text>
<text y="376.5" x="318.0" style="fill:#1b8b1b">ˈˈ</text>
<text y="376.5" x="330.0" style="fill:#ffffff">~</text>
<text y="388.0" x="0.0" style="fill:#ffffff">≈≈≈≈≈≈≈≈≈≈≈≈≈≈≈≈≈≈≈≈≈≈≈≈≈≈≈≈≈≈≈≈≈≈≈≈≈≈≈≈≈≈≈≈≈≈≈≈≈</text>
<text y="388.0" x="294.0" style="fill:#ffffff">~~~~</text>
<text y="388.0" x="318.0" style="fill:#1b8b1b">⌄ˈ</text>
<text y="388.0" x="330.0" style="fill:#ffffff">~</text>
<text y="399.5" x="0.0" style="fill:#ffffff">≈≈≈≈≈≈≈≈≈≈≈≈≈≈≈≈≈≈≈≈≈≈≈≈≈≈≈≈≈≈≈≈≈≈≈≈≈≈≈≈≈≈≈≈≈≈≈≈≈</text>
<text y="399.5" x="294.0" style="fill:#ffffff">~~~~</text>
<text y="399.5" x="318.0" style="fill:#1b8b1b">⌄</text>
<text y="399.5" x="324.0" style="fill:#ffffff">~~</text>
<text y="411.0" x="0.0" style="fill:#ffffff">≈≈≈≈≈≈≈≈≈≈≈≈≈≈≈≈≈≈≈≈≈≈≈≈≈≈≈≈≈≈≈≈≈≈≈≈≈≈≈≈≈≈≈≈≈≈≈≈≈</text>
<text y="411.0" x="294.0" style="fill:#ffffff">~~~~~~~</text>
</svg>
